<svg width="1078" height="116" viewBox="0 0 1078 116" fill="none" xmlns="http://www.w3.org/2000/svg">
<rect x="82.2568" y="54.5186" width="895.423" height="5.19226" rx="2.59613" fill="#FF7A00"/>
<rect x="82.2041" y="45.1816" width="30.1213" height="30.1213" rx="15.0606" fill="#FF7A00"/>
<path d="M2.14875 28V11.2727H8.11111C9.41248 11.2727 10.4906 11.5096 11.3455 11.9833C12.2004 12.457 12.8402 13.105 13.2649 13.9272C13.6896 14.744 13.9019 15.6642 13.9019 16.6879C13.9019 17.717 13.6869 18.6426 13.2567 19.4648C12.832 20.2816 12.1895 20.9296 11.3291 21.4087C10.4743 21.8825 9.39887 22.1193 8.10294 22.1193H4.0028V19.9794H7.87425C8.69645 19.9794 9.36347 19.8378 9.87531 19.5547C10.3871 19.2661 10.7629 18.8741 11.0024 18.3786C11.242 17.883 11.3618 17.3195 11.3618 16.6879C11.3618 16.0562 11.242 15.4954 11.0024 15.0053C10.7629 14.5153 10.3844 14.1314 9.86714 13.8537C9.35531 13.576 8.68012 13.4371 7.84158 13.4371H4.67254V28H2.14875ZM21.9144 28.2532C20.6783 28.2532 19.6138 27.9891 18.7208 27.4609C17.8333 26.9273 17.1472 26.1786 16.6626 25.2148C16.1834 24.2456 15.9438 23.1103 15.9438 21.8089C15.9438 20.5239 16.1834 19.3913 16.6626 18.4112C17.1472 17.4311 17.8224 16.6661 18.6882 16.1161C19.5594 15.5662 20.5776 15.2912 21.7429 15.2912C22.4507 15.2912 23.1368 15.4083 23.8011 15.6424C24.4654 15.8765 25.0616 16.2441 25.5898 16.745C26.118 17.246 26.5345 17.8967 26.8394 18.6971C27.1444 19.4921 27.2968 20.4586 27.2968 21.5966V22.4624H17.3242V20.6328H24.9037C24.9037 19.9903 24.773 19.4213 24.5117 18.9258C24.2503 18.4248 23.8828 18.0301 23.409 17.7415C22.9408 17.4529 22.3908 17.3086 21.7592 17.3086C21.0731 17.3086 20.4742 17.4774 19.9623 17.815C19.4559 18.1471 19.0639 18.5827 18.7862 19.1218C18.5139 19.6554 18.3778 20.2353 18.3778 20.8615V22.2908C18.3778 23.1294 18.5248 23.8427 18.8188 24.4308C19.1183 25.0188 19.5349 25.468 20.0685 25.7784C20.6021 26.0833 21.2256 26.2358 21.9389 26.2358C22.4017 26.2358 22.8237 26.1705 23.2049 26.0398C23.586 25.9036 23.9154 25.7022 24.1931 25.4354C24.4708 25.1686 24.6832 24.8391 24.8302 24.4471L27.1416 24.8636C26.9565 25.5443 26.6244 26.1405 26.1452 26.6523C25.6715 27.1587 25.0752 27.5535 24.3565 27.8366C23.6432 28.1143 22.8291 28.2532 21.9144 28.2532ZM39.4074 18.5174L37.1939 18.9094C37.1014 18.6263 36.9544 18.3568 36.7529 18.1009C36.5569 17.8449 36.2901 17.6353 35.9525 17.4719C35.6149 17.3086 35.1929 17.2269 34.6865 17.2269C33.995 17.2269 33.4178 17.3821 32.9549 17.6925C32.4921 17.9974 32.2607 18.3922 32.2607 18.8768C32.2607 19.296 32.4159 19.6336 32.7263 19.8896C33.0366 20.1455 33.5376 20.3551 34.2291 20.5185L36.222 20.9759C37.3763 21.2427 38.2367 21.6538 38.803 22.2092C39.3692 22.7646 39.6524 23.486 39.6524 24.3736C39.6524 25.125 39.4346 25.7947 38.999 26.3828C38.5688 26.9654 37.9671 27.4228 37.1939 27.755C36.4262 28.0871 35.5359 28.2532 34.5231 28.2532C33.1183 28.2532 31.9721 27.9537 31.0846 27.3548C30.197 26.7504 29.6525 25.8928 29.451 24.782L31.8115 24.4226C31.9585 25.0379 32.2607 25.5034 32.7181 25.8192C33.1755 26.1296 33.7717 26.2848 34.5068 26.2848C35.3072 26.2848 35.947 26.1187 36.4262 25.7866C36.9053 25.449 37.1449 25.0379 37.1449 24.5533C37.1449 24.1612 36.9979 23.8318 36.7039 23.565C36.4153 23.2982 35.9715 23.0967 35.3726 22.9606L33.249 22.495C32.0783 22.2282 31.2125 21.8035 30.6517 21.2209C30.0963 20.6383 29.8186 19.9004 29.8186 19.0075C29.8186 18.2669 30.0255 17.619 30.4393 17.0636C30.8531 16.5082 31.4249 16.0753 32.1545 15.7649C32.8842 15.4491 33.72 15.2912 34.662 15.2912C36.0178 15.2912 37.085 15.5852 37.8637 16.1733C38.6423 16.7559 39.1569 17.5373 39.4074 18.5174ZM45.9884 28.2777C45.1934 28.2777 44.4747 28.1307 43.8322 27.8366C43.1896 27.5372 42.6805 27.1043 42.3048 26.538C41.9346 25.9717 41.7494 25.2775 41.7494 24.4553C41.7494 23.7474 41.8855 23.1648 42.1578 22.7074C42.4301 22.25 42.7976 21.8879 43.2604 21.6211C43.7233 21.3543 44.2405 21.1528 44.8123 21.0167C45.384 20.8806 45.9666 20.7771 46.5601 20.7063C47.3116 20.6192 47.9214 20.5484 48.3897 20.494C48.858 20.4341 49.1983 20.3388 49.4106 20.2081C49.623 20.0774 49.7292 19.8651 49.7292 19.571V19.5138C49.7292 18.8005 49.5277 18.2479 49.1248 17.8558C48.7273 17.4638 48.1338 17.2678 47.3442 17.2678C46.522 17.2678 45.8741 17.4502 45.4003 17.815C44.9321 18.1744 44.6081 18.5746 44.4284 19.0156L42.1333 18.4929C42.4056 17.7306 42.803 17.1153 43.3258 16.647C43.8539 16.1733 44.4611 15.8303 45.1472 15.6179C45.8332 15.4001 46.5547 15.2912 47.3116 15.2912C47.8125 15.2912 48.3434 15.3511 48.9043 15.4709C49.4705 15.5852 49.9987 15.7976 50.4888 16.108C50.9843 16.4183 51.3899 16.8621 51.7057 17.4393C52.0216 18.011 52.1795 18.7543 52.1795 19.669V28H49.7945V26.2848H49.6965C49.5386 26.6006 49.3017 26.911 48.9859 27.2159C48.6701 27.5208 48.2645 27.774 47.769 27.9755C47.2735 28.177 46.6799 28.2777 45.9884 28.2777ZM46.5193 26.3175C47.1945 26.3175 47.7717 26.1841 48.2508 25.9173C48.7355 25.6504 49.103 25.302 49.3535 24.8718C49.6094 24.4362 49.7373 23.9706 49.7373 23.4751V21.858C49.6502 21.9451 49.4814 22.0268 49.231 22.103C48.9859 22.1738 48.7055 22.2364 48.3897 22.2908C48.0739 22.3398 47.7662 22.3861 47.4668 22.4297C47.1673 22.4678 46.9168 22.5005 46.7153 22.5277C46.2416 22.5876 45.8087 22.6883 45.4167 22.8299C45.0301 22.9715 44.7197 23.1757 44.4856 23.4425C44.2569 23.7038 44.1425 24.0523 44.1425 24.4879C44.1425 25.0923 44.3658 25.5497 44.8123 25.8601C45.2588 26.165 45.8278 26.3175 46.5193 26.3175ZM57.8743 20.5511V28H55.4322V15.4545H57.7763V17.4964H57.9315C58.2201 16.8321 58.672 16.2985 59.2873 15.8956C59.9081 15.4927 60.6894 15.2912 61.6314 15.2912C62.4863 15.2912 63.235 15.4709 63.8775 15.8303C64.52 16.1842 65.0183 16.7124 65.3722 17.4148C65.7261 18.1172 65.9031 18.9857 65.9031 20.0202V28H63.461V20.3143C63.461 19.4049 63.2241 18.6944 62.7504 18.1825C62.2767 17.6652 61.626 17.4066 60.7983 17.4066C60.2321 17.4066 59.7284 17.5291 59.2873 17.7741C58.8517 18.0192 58.506 18.3786 58.25 18.8523C57.9996 19.3205 57.8743 19.8868 57.8743 20.5511ZM72.8292 28.2777C72.0343 28.2777 71.3155 28.1307 70.673 27.8366C70.0305 27.5372 69.5214 27.1043 69.1456 26.538C68.7754 25.9717 68.5902 25.2775 68.5902 24.4553C68.5902 23.7474 68.7264 23.1648 68.9986 22.7074C69.2709 22.25 69.6384 21.8879 70.1013 21.6211C70.5641 21.3543 71.0814 21.1528 71.6531 21.0167C72.2248 20.8806 72.8075 20.7771 73.401 20.7063C74.1524 20.6192 74.7622 20.5484 75.2305 20.494C75.6988 20.4341 76.0391 20.3388 76.2515 20.2081C76.4638 20.0774 76.57 19.8651 76.57 19.571V19.5138C76.57 18.8005 76.3685 18.2479 75.9656 17.8558C75.5681 17.4638 74.9746 17.2678 74.1851 17.2678C73.3629 17.2678 72.7149 17.4502 72.2412 17.815C71.7729 18.1744 71.4489 18.5746 71.2692 19.0156L68.9741 18.4929C69.2464 17.7306 69.6439 17.1153 70.1666 16.647C70.6948 16.1733 71.3019 15.8303 71.988 15.6179C72.6741 15.4001 73.3955 15.2912 74.1524 15.2912C74.6533 15.2912 75.1842 15.3511 75.7451 15.4709C76.3114 15.5852 76.8395 15.7976 77.3296 16.108C77.8251 16.4183 78.2307 16.8621 78.5466 17.4393C78.8624 18.011 79.0203 18.7543 79.0203 19.669V28H76.6353V26.2848H76.5373C76.3794 26.6006 76.1426 26.911 75.8267 27.2159C75.5109 27.5208 75.1053 27.774 74.6098 27.9755C74.1143 28.177 73.5208 28.2777 72.8292 28.2777ZM73.3601 26.3175C74.0353 26.3175 74.6125 26.1841 75.0917 25.9173C75.5763 25.6504 75.9438 25.302 76.1943 24.8718C76.4502 24.4362 76.5782 23.9706 76.5782 23.4751V21.858C76.491 21.9451 76.3223 22.0268 76.0718 22.103C75.8267 22.1738 75.5463 22.2364 75.2305 22.2908C74.9147 22.3398 74.6071 22.3861 74.3076 22.4297C74.0081 22.4678 73.7576 22.5005 73.5562 22.5277C73.0824 22.5876 72.6495 22.6883 72.2575 22.8299C71.8709 22.9715 71.5605 23.1757 71.3264 23.4425C71.0977 23.7038 70.9834 24.0523 70.9834 24.4879C70.9834 25.0923 71.2066 25.5497 71.6531 25.8601C72.0996 26.165 72.6686 26.3175 73.3601 26.3175ZM84.7152 20.5511V28H82.273V15.4545H84.6171V17.4964H84.7723C85.0609 16.8321 85.5129 16.2985 86.1282 15.8956C86.7489 15.4927 87.5303 15.2912 88.4723 15.2912C89.3271 15.2912 90.0758 15.4709 90.7184 15.8303C91.3609 16.1842 91.8591 16.7124 92.213 17.4148C92.567 18.1172 92.7439 18.9857 92.7439 20.0202V28H90.3018V20.3143C90.3018 19.4049 90.0649 18.6944 89.5912 18.1825C89.1175 17.6652 88.4668 17.4066 87.6392 17.4066C87.0729 17.4066 86.5692 17.5291 86.1282 17.7741C85.6925 18.0192 85.3468 18.3786 85.0909 18.8523C84.8404 19.3205 84.7152 19.8868 84.7152 20.5511ZM107.717 28H102.302V11.2727H107.889C109.528 11.2727 110.935 11.6076 112.111 12.2773C113.288 12.9416 114.189 13.8973 114.815 15.1442C115.446 16.3857 115.762 17.8749 115.762 19.6119C115.762 21.3543 115.444 22.8517 114.807 24.104C114.175 25.3564 113.26 26.3202 112.062 26.9954C110.864 27.6651 109.416 28 107.717 28ZM104.826 25.7947H107.578C108.852 25.7947 109.912 25.5552 110.756 25.076C111.6 24.5914 112.231 23.8917 112.65 22.9769C113.07 22.0567 113.279 20.935 113.279 19.6119C113.279 18.2996 113.07 17.1861 112.65 16.2713C112.237 15.3565 111.619 14.6623 110.796 14.1886C109.974 13.7148 108.953 13.478 107.734 13.478H104.826V25.7947ZM118.705 28V15.4545H121.147V28H118.705ZM119.938 13.5188C119.513 13.5188 119.148 13.3772 118.844 13.0941C118.544 12.8055 118.394 12.4625 118.394 12.065C118.394 11.662 118.544 11.319 118.844 11.0359C119.148 10.7473 119.513 10.603 119.938 10.603C120.363 10.603 120.725 10.7473 121.024 11.0359C121.329 11.319 121.482 11.662 121.482 12.065C121.482 12.4625 121.329 12.8055 121.024 13.0941C120.725 13.3772 120.363 13.5188 119.938 13.5188ZM130.288 15.4545V17.4148H123.436V15.4545H130.288ZM125.273 12.4489H127.716V24.3164C127.716 24.7901 127.786 25.1468 127.928 25.3864C128.07 25.6205 128.252 25.7811 128.475 25.8683C128.704 25.9499 128.952 25.9908 129.218 25.9908C129.414 25.9908 129.586 25.9772 129.733 25.9499C129.88 25.9227 129.994 25.9009 130.076 25.8846L130.517 27.902C130.376 27.9564 130.174 28.0109 129.913 28.0653C129.651 28.1252 129.325 28.1579 128.933 28.1634C128.29 28.1742 127.691 28.0599 127.136 27.8203C126.58 27.5807 126.131 27.2105 125.788 26.7095C125.445 26.2086 125.273 25.5797 125.273 24.8228V12.4489ZM138.262 28.2532C137.026 28.2532 135.961 27.9891 135.068 27.4609C134.181 26.9273 133.495 26.1786 133.01 25.2148C132.531 24.2456 132.292 23.1103 132.292 21.8089C132.292 20.5239 132.531 19.3913 133.01 18.4112C133.495 17.4311 134.17 16.6661 135.036 16.1161C135.907 15.5662 136.925 15.2912 138.091 15.2912C138.798 15.2912 139.484 15.4083 140.149 15.6424C140.813 15.8765 141.409 16.2441 141.937 16.745C142.466 17.246 142.882 17.8967 143.187 18.6971C143.492 19.4921 143.644 20.4586 143.644 21.5966V22.4624H133.672V20.6328H141.251C141.251 19.9903 141.121 19.4213 140.859 18.9258C140.598 18.4248 140.23 18.0301 139.757 17.7415C139.288 17.4529 138.738 17.3086 138.107 17.3086C137.421 17.3086 136.822 17.4774 136.31 17.815C135.804 18.1471 135.412 18.5827 135.134 19.1218C134.862 19.6554 134.725 20.2353 134.725 20.8615V22.2908C134.725 23.1294 134.872 23.8427 135.167 24.4308C135.466 25.0188 135.883 25.468 136.416 25.7784C136.95 26.0833 137.573 26.2358 138.287 26.2358C138.749 26.2358 139.171 26.1705 139.553 26.0398C139.934 25.9036 140.263 25.7022 140.541 25.4354C140.818 25.1686 141.031 24.8391 141.178 24.4471L143.489 24.8636C143.304 25.5443 142.972 26.1405 142.493 26.6523C142.019 27.1587 141.423 27.5535 140.704 27.8366C139.991 28.1143 139.177 28.2532 138.262 28.2532ZM146.354 28V15.4545H148.715V17.4474H148.845C149.074 16.7723 149.477 16.2414 150.054 15.8548C150.637 15.4627 151.295 15.2667 152.031 15.2667C152.183 15.2667 152.363 15.2721 152.57 15.283C152.782 15.2939 152.948 15.3075 153.068 15.3239V17.6598C152.97 17.6326 152.796 17.6026 152.545 17.57C152.295 17.5318 152.044 17.5128 151.794 17.5128C151.217 17.5128 150.702 17.6353 150.25 17.8803C149.804 18.1199 149.45 18.4548 149.188 18.8849C148.927 19.3097 148.796 19.7943 148.796 20.3388V28H146.354ZM155.181 28V15.4545H157.623V28H155.181ZM156.415 13.5188C155.99 13.5188 155.625 13.3772 155.32 13.0941C155.021 12.8055 154.871 12.4625 154.871 12.065C154.871 11.662 155.021 11.319 155.32 11.0359C155.625 10.7473 155.99 10.603 156.415 10.603C156.839 10.603 157.201 10.7473 157.501 11.0359C157.806 11.319 157.958 11.662 157.958 12.065C157.958 12.4625 157.806 12.8055 157.501 13.0941C157.201 13.3772 156.839 13.5188 156.415 13.5188ZM160.909 28V15.4545H163.253V17.4964H163.408C163.669 16.8049 164.097 16.2659 164.69 15.8793C165.284 15.4872 165.994 15.2912 166.822 15.2912C167.661 15.2912 168.363 15.4872 168.929 15.8793C169.501 16.2713 169.923 16.8104 170.195 17.4964H170.326C170.626 16.8267 171.102 16.2931 171.755 15.8956C172.409 15.4927 173.187 15.2912 174.091 15.2912C175.229 15.2912 176.158 15.6478 176.876 16.3612C177.601 17.0745 177.963 18.1499 177.963 19.5874V28H175.521V19.8161C175.521 18.9666 175.289 18.3513 174.826 17.9702C174.364 17.589 173.811 17.3984 173.168 17.3984C172.373 17.3984 171.755 17.6435 171.314 18.1335C170.873 18.6181 170.653 19.2416 170.653 20.0039V28H168.219V19.6609C168.219 18.9802 168.006 18.433 167.582 18.0192C167.157 17.6054 166.604 17.3984 165.924 17.3984C165.461 17.3984 165.033 17.521 164.641 17.766C164.255 18.0056 163.942 18.3404 163.702 18.7706C163.468 19.2008 163.351 19.699 163.351 20.2653V28H160.909ZM184.887 28.2777C184.092 28.2777 183.373 28.1307 182.731 27.8366C182.088 27.5372 181.579 27.1043 181.203 26.538C180.833 25.9717 180.648 25.2775 180.648 24.4553C180.648 23.7474 180.784 23.1648 181.056 22.7074C181.328 22.25 181.696 21.8879 182.159 21.6211C182.622 21.3543 183.139 21.1528 183.711 21.0167C184.282 20.8806 184.865 20.7771 185.459 20.7063C186.21 20.6192 186.82 20.5484 187.288 20.494C187.756 20.4341 188.097 20.3388 188.309 20.2081C188.521 20.0774 188.628 19.8651 188.628 19.571V19.5138C188.628 18.8005 188.426 18.2479 188.023 17.8558C187.626 17.4638 187.032 17.2678 186.243 17.2678C185.42 17.2678 184.773 17.4502 184.299 17.815C183.831 18.1744 183.507 18.5746 183.327 19.0156L181.032 18.4929C181.304 17.7306 181.701 17.1153 182.224 16.647C182.752 16.1733 183.36 15.8303 184.046 15.6179C184.732 15.4001 185.453 15.2912 186.21 15.2912C186.711 15.2912 187.242 15.3511 187.803 15.4709C188.369 15.5852 188.897 15.7976 189.387 16.108C189.883 16.4183 190.288 16.8621 190.604 17.4393C190.92 18.011 191.078 18.7543 191.078 19.669V28H188.693V26.2848H188.595C188.437 26.6006 188.2 26.911 187.884 27.2159C187.569 27.5208 187.163 27.774 186.667 27.9755C186.172 28.177 185.578 28.2777 184.887 28.2777ZM185.418 26.3175C186.093 26.3175 186.67 26.1841 187.149 25.9173C187.634 25.6504 188.001 25.302 188.252 24.8718C188.508 24.4362 188.636 23.9706 188.636 23.4751V21.858C188.549 21.9451 188.38 22.0268 188.129 22.103C187.884 22.1738 187.604 22.2364 187.288 22.2908C186.972 22.3398 186.665 22.3861 186.365 22.4297C186.066 22.4678 185.815 22.5005 185.614 22.5277C185.14 22.5876 184.707 22.6883 184.315 22.8299C183.929 22.9715 183.618 23.1757 183.384 23.4425C183.155 23.7038 183.041 24.0523 183.041 24.4879C183.041 25.0923 183.264 25.5497 183.711 25.8601C184.157 26.165 184.726 26.3175 185.418 26.3175Z" fill="black"/>
<path d="M23.7404 91.603V106.148H21.979V93.4496H21.8938L18.3427 95.8075V94.0178L21.979 91.603H23.7404ZM32.5543 91.4041C33.1509 91.4089 33.7475 91.5225 34.3441 91.745C34.9407 91.9676 35.4852 92.3369 35.9776 92.853C36.4701 93.3643 36.8654 94.0627 37.1637 94.9482C37.462 95.8336 37.6112 96.9439 37.6112 98.2791C37.6112 99.5717 37.488 100.72 37.2418 101.724C37.0004 102.723 36.65 103.566 36.1907 104.252C35.7362 104.939 35.1822 105.46 34.5288 105.815C33.8801 106.17 33.1462 106.347 32.3271 106.347C31.5127 106.347 30.7859 106.186 30.1467 105.864C29.5122 105.538 28.9914 105.085 28.5842 104.508C28.1817 103.925 27.9237 103.251 27.81 102.484H29.543C29.6992 103.151 30.0094 103.703 30.4734 104.138C30.9421 104.569 31.56 104.785 32.3271 104.785C33.4492 104.785 34.3346 104.295 34.9833 103.315C35.6367 102.335 35.9634 100.95 35.9634 99.1598H35.8498C35.5846 99.5575 35.2698 99.9008 34.9052 100.19C34.5406 100.478 34.1358 100.701 33.6907 100.857C33.2456 101.013 32.7721 101.092 32.2702 101.092C31.4369 101.092 30.6722 100.886 29.9762 100.474C29.2849 100.057 28.7309 99.4865 28.3143 98.7621C27.9023 98.0329 27.6964 97.1996 27.6964 96.2621C27.6964 95.3719 27.8952 94.5575 28.293 93.8189C28.6954 93.0755 29.2589 92.4837 29.9833 92.0433C30.7125 91.603 31.5695 91.3899 32.5543 91.4041ZM32.5543 92.9666C31.9577 92.9666 31.4203 93.1158 30.9421 93.4141C30.4686 93.7076 30.0922 94.1053 29.8129 94.6072C29.5382 95.1044 29.4009 95.656 29.4009 96.2621C29.4009 96.8681 29.5335 97.4197 29.7987 97.9169C30.0685 98.4093 30.4355 98.8023 30.8995 99.0959C31.3683 99.3847 31.9009 99.5291 32.4975 99.5291C32.9473 99.5291 33.3664 99.4415 33.7546 99.2663C34.1429 99.0864 34.4814 98.8426 34.7702 98.5348C35.0638 98.2223 35.2934 97.8696 35.4592 97.4766C35.6249 97.0788 35.7077 96.6645 35.7077 96.2337C35.7077 95.6655 35.5704 95.1328 35.2958 94.6357C35.0259 94.1385 34.6519 93.736 34.1737 93.4283C33.7002 93.1205 33.1604 92.9666 32.5543 92.9666ZM46.8814 106.148H45.0348L50.3757 91.603H52.1939L57.5348 106.148H55.6882L51.3416 93.9041H51.228L46.8814 106.148ZM47.5632 100.467H55.0064V102.029H47.5632V100.467ZM63.9766 110.467C63.1669 110.467 62.4709 110.362 61.8885 110.154C61.3061 109.951 60.8208 109.681 60.4325 109.344C60.049 109.013 59.7436 108.658 59.5163 108.279L60.8516 107.342C61.0031 107.54 61.1948 107.768 61.4268 108.023C61.6589 108.284 61.9761 108.509 62.3786 108.698C62.7857 108.892 63.3184 108.989 63.9766 108.989C64.8572 108.989 65.584 108.776 66.157 108.35C66.7299 107.924 67.0163 107.256 67.0163 106.347V104.131H66.8743C66.7512 104.33 66.576 104.576 66.3487 104.87C66.1262 105.159 65.8042 105.417 65.3828 105.644C64.9661 105.867 64.4027 105.978 63.6925 105.978C62.8118 105.978 62.0211 105.77 61.3203 105.353C60.6243 104.936 60.0727 104.33 59.6655 103.535C59.263 102.739 59.0618 101.773 59.0618 100.637C59.0618 99.5196 59.2583 98.5466 59.6513 97.718C60.0443 96.8847 60.5911 96.2408 61.2919 95.7862C61.9927 95.3269 62.8023 95.0973 63.7209 95.0973C64.4311 95.0973 64.9946 95.2157 65.4112 95.4524C65.8326 95.6844 66.1546 95.9496 66.3771 96.2479C66.6044 96.5414 66.7796 96.7829 66.9027 96.9723H67.0732V95.2393H68.6925V106.461C68.6925 107.398 68.4794 108.161 68.0533 108.748C67.6319 109.34 67.0637 109.773 66.3487 110.048C65.6385 110.327 64.8478 110.467 63.9766 110.467ZM63.9197 104.472C64.5921 104.472 65.1603 104.318 65.6243 104.011C66.0883 103.703 66.4411 103.26 66.6825 102.683C66.924 102.105 67.0447 101.414 67.0447 100.609C67.0447 99.8227 66.9264 99.129 66.6896 98.5277C66.4529 97.9264 66.1025 97.4553 65.6385 97.1143C65.1745 96.7734 64.6016 96.603 63.9197 96.603C63.2095 96.603 62.6177 96.7829 62.1442 97.1428C61.6754 97.5026 61.3227 97.9856 61.0859 98.5916C60.8539 99.1977 60.7379 99.87 60.7379 100.609C60.7379 101.366 60.8563 102.036 61.093 102.619C61.3345 103.196 61.6896 103.651 62.1584 103.982C62.6319 104.309 63.219 104.472 63.9197 104.472ZM78.6357 101.688V95.2393H80.3118V106.148H78.6357V104.302H78.522C78.2663 104.856 77.8686 105.327 77.3288 105.715C76.7891 106.099 76.1072 106.29 75.2834 106.29C74.6016 106.29 73.9955 106.141 73.4652 105.843C72.9349 105.54 72.5182 105.085 72.2152 104.479C71.9122 103.869 71.7607 103.099 71.7607 102.171V95.2393H73.4368V102.058C73.4368 102.853 73.6593 103.487 74.1044 103.961C74.5542 104.434 75.1271 104.671 75.8232 104.671C76.2398 104.671 76.6636 104.565 77.0945 104.352C77.5301 104.138 77.8946 103.812 78.1882 103.371C78.4865 102.931 78.6357 102.37 78.6357 101.688ZM91.109 97.6825L89.6033 98.1087C89.5086 97.8577 89.369 97.6139 89.1843 97.3771C89.0044 97.1357 88.7582 96.9368 88.4457 96.7805C88.1332 96.6243 87.7331 96.5462 87.2454 96.5462C86.5778 96.5462 86.0214 96.7 85.5763 97.0078C85.136 97.3108 84.9158 97.6967 84.9158 98.1655C84.9158 98.5821 85.0674 98.9112 85.3704 99.1527C85.6734 99.3942 86.1469 99.5954 86.7908 99.7564L88.4102 100.154C89.3855 100.391 90.1123 100.753 90.5906 101.241C91.0688 101.724 91.3079 102.346 91.3079 103.109C91.3079 103.734 91.128 104.292 90.7681 104.785C90.413 105.277 89.9158 105.665 89.2766 105.95C88.6374 106.234 87.8941 106.376 87.0465 106.376C85.9338 106.376 85.0129 106.134 84.2837 105.651C83.5546 105.168 83.0929 104.463 82.8988 103.535L84.4897 103.137C84.6412 103.724 84.9277 104.165 85.3491 104.458C85.7752 104.752 86.3316 104.898 87.0181 104.898C87.7994 104.898 88.4196 104.733 88.8789 104.401C89.3429 104.065 89.5749 103.663 89.5749 103.194C89.5749 102.815 89.4424 102.498 89.1772 102.242C88.9121 101.982 88.5049 101.788 87.9556 101.66L86.1374 101.234C85.1384 100.997 84.4045 100.63 83.9357 100.133C83.4717 99.6309 83.2397 99.0036 83.2397 98.2507C83.2397 97.6352 83.4125 97.0907 83.7582 96.6172C84.1085 96.1437 84.5844 95.772 85.1857 95.5021C85.7918 95.2322 86.4783 95.0973 87.2454 95.0973C88.3249 95.0973 89.1725 95.334 89.788 95.8075C90.4083 96.281 90.8486 96.906 91.109 97.6825ZM98.5753 95.2393V96.6598H92.9219V95.2393H98.5753ZM94.5696 92.6257H96.2457V103.023C96.2457 103.497 96.3144 103.852 96.4517 104.089C96.5938 104.321 96.7737 104.477 96.9915 104.558C97.214 104.633 97.4484 104.671 97.6946 104.671C97.8793 104.671 98.0308 104.662 98.1491 104.643C98.2675 104.619 98.3622 104.6 98.4332 104.586L98.7741 106.092C98.6605 106.134 98.5019 106.177 98.2983 106.219C98.0947 106.267 97.8366 106.29 97.5241 106.29C97.0507 106.29 96.5866 106.189 96.1321 105.985C95.6823 105.781 95.3082 105.471 95.0099 105.055C94.7164 104.638 94.5696 104.112 94.5696 103.478V92.6257ZM107.972 101.688V95.2393H109.648V106.148H107.972V104.302H107.858C107.602 104.856 107.205 105.327 106.665 105.715C106.125 106.099 105.443 106.29 104.619 106.29C103.938 106.29 103.331 106.141 102.801 105.843C102.271 105.54 101.854 105.085 101.551 104.479C101.248 103.869 101.097 103.099 101.097 102.171V95.2393H102.773V102.058C102.773 102.853 102.995 103.487 103.44 103.961C103.89 104.434 104.463 104.671 105.159 104.671C105.576 104.671 106 104.565 106.43 104.352C106.866 104.138 107.231 103.812 107.524 103.371C107.822 102.931 107.972 102.37 107.972 101.688ZM120.445 97.6825L118.939 98.1087C118.845 97.8577 118.705 97.6139 118.52 97.3771C118.34 97.1357 118.094 96.9368 117.782 96.7805C117.469 96.6243 117.069 96.5462 116.581 96.5462C115.914 96.5462 115.357 96.7 114.912 97.0078C114.472 97.3108 114.252 97.6967 114.252 98.1655C114.252 98.5821 114.403 98.9112 114.706 99.1527C115.009 99.3942 115.483 99.5954 116.127 99.7564L117.746 100.154C118.721 100.391 119.448 100.753 119.926 101.241C120.405 101.724 120.644 102.346 120.644 103.109C120.644 103.734 120.464 104.292 120.104 104.785C119.749 105.277 119.252 105.665 118.613 105.95C117.973 106.234 117.23 106.376 116.382 106.376C115.27 106.376 114.349 106.134 113.62 105.651C112.891 105.168 112.429 104.463 112.235 103.535L113.826 103.137C113.977 103.724 114.264 104.165 114.685 104.458C115.111 104.752 115.667 104.898 116.354 104.898C117.135 104.898 117.756 104.733 118.215 104.401C118.679 104.065 118.911 103.663 118.911 103.194C118.911 102.815 118.778 102.498 118.513 102.242C118.248 101.982 117.841 101.788 117.292 101.66L115.473 101.234C114.474 100.997 113.74 100.63 113.272 100.133C112.808 99.6309 112.576 99.0036 112.576 98.2507C112.576 97.6352 112.748 97.0907 113.094 96.6172C113.444 96.1437 113.92 95.772 114.522 95.5021C115.128 95.2322 115.814 95.0973 116.581 95.0973C117.661 95.0973 118.508 95.334 119.124 95.8075C119.744 96.281 120.185 96.906 120.445 97.6825ZM128.763 106.148V104.87L133.565 99.6143C134.128 98.9988 134.592 98.4638 134.957 98.0092C135.321 97.55 135.591 97.1191 135.766 96.7166C135.946 96.3094 136.036 95.8833 136.036 95.4382C136.036 94.9268 135.913 94.4841 135.667 94.1101C135.425 93.736 135.094 93.4472 134.673 93.2436C134.251 93.04 133.778 92.9382 133.252 92.9382C132.693 92.9382 132.206 93.0542 131.789 93.2862C131.377 93.5135 131.058 93.8331 130.83 94.245C130.608 94.657 130.496 95.1399 130.496 95.6939H128.82C128.82 94.8416 129.017 94.0935 129.41 93.4496C129.803 92.8056 130.338 92.3037 131.015 91.9439C131.697 91.584 132.461 91.4041 133.309 91.4041C134.161 91.4041 134.916 91.584 135.575 91.9439C136.233 92.3037 136.749 92.7891 137.123 93.3999C137.497 94.0107 137.684 94.6901 137.684 95.4382C137.684 95.9732 137.587 96.4964 137.393 97.0078C137.203 97.5144 136.872 98.0803 136.398 98.7053C135.93 99.3255 135.279 100.083 134.445 100.978L131.178 104.472V104.586H137.94V106.148H128.763ZM145.617 106.347C144.547 106.347 143.636 106.056 142.883 105.474C142.13 104.887 141.555 104.037 141.157 102.924C140.759 101.807 140.56 100.457 140.56 98.8757C140.56 97.3037 140.759 95.9614 141.157 94.8487C141.559 93.7313 142.137 92.879 142.89 92.2919C143.647 91.7 144.557 91.4041 145.617 91.4041C146.678 91.4041 147.585 91.7 148.337 92.2919C149.095 92.879 149.673 93.7313 150.07 94.8487C150.473 95.9614 150.674 97.3037 150.674 98.8757C150.674 100.457 150.475 101.807 150.077 102.924C149.68 104.037 149.104 104.887 148.352 105.474C147.599 106.056 146.687 106.347 145.617 106.347ZM145.617 104.785C146.678 104.785 147.502 104.273 148.089 103.251C148.676 102.228 148.969 100.77 148.969 98.8757C148.969 97.6162 148.835 96.5438 148.565 95.6584C148.299 94.773 147.916 94.0982 147.414 93.6342C146.917 93.1702 146.318 92.9382 145.617 92.9382C144.566 92.9382 143.745 93.4567 143.153 94.4936C142.561 95.5258 142.265 96.9865 142.265 98.8757C142.265 100.135 142.397 101.205 142.663 102.086C142.928 102.967 143.309 103.637 143.806 104.096C144.308 104.555 144.912 104.785 145.617 104.785ZM153.373 106.148V104.87L158.174 99.6143C158.737 98.9988 159.201 98.4638 159.566 98.0092C159.931 97.55 160.201 97.1191 160.376 96.7166C160.556 96.3094 160.646 95.8833 160.646 95.4382C160.646 94.9268 160.522 94.4841 160.276 94.1101C160.035 93.736 159.703 93.4472 159.282 93.2436C158.861 93.04 158.387 92.9382 157.862 92.9382C157.303 92.9382 156.815 93.0542 156.398 93.2862C155.987 93.5135 155.667 93.8331 155.44 94.245C155.217 94.657 155.106 95.1399 155.106 95.6939H153.43C153.43 94.8416 153.626 94.0935 154.019 93.4496C154.412 92.8056 154.947 92.3037 155.624 91.9439C156.306 91.584 157.071 91.4041 157.918 91.4041C158.771 91.4041 159.526 91.584 160.184 91.9439C160.842 92.3037 161.358 92.7891 161.732 93.3999C162.106 94.0107 162.293 94.6901 162.293 95.4382C162.293 95.9732 162.196 96.4964 162.002 97.0078C161.813 97.5144 161.481 98.0803 161.008 98.7053C160.539 99.3255 159.888 100.083 159.055 100.978L155.788 104.472V104.586H162.549V106.148H153.373ZM164.829 103.165V101.717L171.221 91.603H172.272V93.8473H171.562L166.732 101.489V101.603H175.34V103.165H164.829ZM171.675 106.148V102.725V102.05V91.603H173.352V106.148H171.675Z" fill="black"/>
<rect x="369.222" y="45.1816" width="30.1213" height="30.1213" rx="15.0606" fill="#FF7A00"/>
<path d="M300.572 15.2756C300.497 14.6032 300.184 14.0824 299.635 13.7131C299.086 13.339 298.394 13.152 297.561 13.152C296.964 13.152 296.448 13.2467 296.013 13.4361C295.577 13.6207 295.238 13.8764 294.997 14.2031C294.76 14.5251 294.642 14.892 294.642 15.304C294.642 15.6496 294.722 15.9479 294.883 16.1989C295.049 16.4498 295.265 16.6605 295.53 16.831C295.8 16.9967 296.088 17.1364 296.396 17.25C296.704 17.3589 297 17.4489 297.284 17.5199L298.704 17.8892C299.168 18.0028 299.644 18.1567 300.132 18.3509C300.62 18.545 301.072 18.8007 301.488 19.1179C301.905 19.4351 302.241 19.8281 302.497 20.2969C302.757 20.7656 302.888 21.3267 302.888 21.9801C302.888 22.804 302.675 23.5355 302.248 24.1747C301.827 24.8139 301.214 25.3182 300.409 25.6875C299.609 26.0568 298.64 26.2415 297.504 26.2415C296.415 26.2415 295.473 26.0687 294.677 25.723C293.882 25.3774 293.259 24.8873 292.809 24.2528C292.36 23.6136 292.111 22.8561 292.064 21.9801H294.265C294.308 22.5057 294.479 22.9437 294.777 23.294C295.08 23.6397 295.466 23.8977 295.934 24.0682C296.408 24.2339 296.926 24.3168 297.49 24.3168C298.11 24.3168 298.662 24.2197 299.145 24.0256C299.632 23.8267 300.016 23.5521 300.295 23.2017C300.575 22.8466 300.714 22.4323 300.714 21.9588C300.714 21.5279 300.591 21.1752 300.345 20.9006C300.104 20.6259 299.774 20.3987 299.358 20.2188C298.946 20.0388 298.479 19.8802 297.959 19.7429L296.24 19.2741C295.075 18.9569 294.152 18.4905 293.47 17.875C292.793 17.2595 292.454 16.4451 292.454 15.4318C292.454 14.5937 292.682 13.8622 293.136 13.2372C293.591 12.6122 294.206 12.1269 294.983 11.7812C295.759 11.4309 296.635 11.2557 297.611 11.2557C298.595 11.2557 299.464 11.4285 300.217 11.7741C300.975 12.1198 301.571 12.5956 302.007 13.2017C302.443 13.803 302.67 14.4943 302.689 15.2756H300.572ZM310.041 26.2202C308.967 26.2202 308.041 25.9905 307.264 25.5312C306.493 25.0672 305.896 24.4162 305.475 23.5781C305.058 22.7353 304.85 21.7481 304.85 20.6165C304.85 19.4991 305.058 18.5142 305.475 17.6619C305.896 16.8097 306.483 16.1444 307.236 15.6662C307.994 15.188 308.879 14.9489 309.892 14.9489C310.508 14.9489 311.104 15.0507 311.682 15.2543C312.26 15.4579 312.778 15.7775 313.237 16.2131C313.697 16.6487 314.059 17.2145 314.324 17.9105C314.589 18.6018 314.722 19.4422 314.722 20.4318V21.1847H306.05V19.5938H312.641C312.641 19.035 312.527 18.5402 312.3 18.1094C312.073 17.6738 311.753 17.3305 311.341 17.0795C310.934 16.8286 310.456 16.7031 309.906 16.7031C309.31 16.7031 308.789 16.8499 308.344 17.1435C307.904 17.4323 307.563 17.8111 307.321 18.2798C307.084 18.7438 306.966 19.2481 306.966 19.7926V21.0355C306.966 21.7647 307.094 22.3849 307.35 22.8963C307.61 23.4077 307.972 23.7983 308.436 24.0682C308.9 24.3333 309.442 24.4659 310.063 24.4659C310.465 24.4659 310.832 24.4091 311.164 24.2955C311.495 24.1771 311.781 24.0019 312.023 23.7699C312.264 23.5379 312.449 23.2514 312.577 22.9105L314.587 23.2727C314.426 23.8646 314.137 24.383 313.72 24.8281C313.308 25.2685 312.79 25.6117 312.165 25.858C311.545 26.0994 310.837 26.2202 310.041 26.2202ZM321.162 26.2131C320.281 26.2131 319.495 25.9882 318.804 25.5384C318.117 25.0838 317.577 24.4375 317.184 23.5994C316.796 22.7566 316.602 21.7457 316.602 20.5668C316.602 19.3878 316.799 18.3793 317.192 17.5412C317.589 16.7031 318.134 16.0616 318.825 15.6165C319.516 15.1714 320.3 14.9489 321.176 14.9489C321.853 14.9489 322.398 15.0625 322.809 15.2898C323.226 15.5123 323.548 15.7727 323.775 16.071C324.007 16.3693 324.187 16.6321 324.315 16.8594H324.443V11.4545H326.567V26H324.493V24.3026H324.315C324.187 24.5346 324.003 24.7997 323.761 25.098C323.524 25.3963 323.198 25.6567 322.781 25.8793C322.364 26.1018 321.825 26.2131 321.162 26.2131ZM321.631 24.402C322.241 24.402 322.757 24.241 323.179 23.919C323.605 23.5923 323.927 23.1402 324.145 22.5625C324.367 21.9848 324.479 21.3125 324.479 20.5455C324.479 19.7879 324.37 19.125 324.152 18.5568C323.934 17.9886 323.614 17.5459 323.193 17.2287C322.772 16.9115 322.251 16.7528 321.631 16.7528C320.991 16.7528 320.459 16.9186 320.032 17.25C319.606 17.5814 319.284 18.0336 319.067 18.6065C318.854 19.1795 318.747 19.8258 318.747 20.5455C318.747 21.2746 318.856 21.9304 319.074 22.5128C319.291 23.0952 319.613 23.5568 320.04 23.8977C320.47 24.2339 321.001 24.402 321.631 24.402ZM332.772 26.2415C332.081 26.2415 331.456 26.1136 330.897 25.858C330.338 25.5975 329.896 25.2211 329.569 24.7287C329.247 24.2363 329.086 23.6326 329.086 22.9176C329.086 22.3021 329.204 21.7955 329.441 21.3977C329.678 21 329.998 20.6851 330.4 20.4531C330.802 20.2211 331.252 20.0459 331.749 19.9276C332.247 19.8092 332.753 19.7192 333.269 19.6577C333.923 19.5819 334.453 19.5204 334.86 19.473C335.267 19.4209 335.563 19.3381 335.748 19.2244C335.933 19.1108 336.025 18.9261 336.025 18.6705V18.6207C336.025 18.0005 335.85 17.5199 335.499 17.179C335.154 16.8381 334.638 16.6676 333.951 16.6676C333.236 16.6676 332.673 16.8262 332.261 17.1435C331.854 17.456 331.572 17.804 331.416 18.1875L329.42 17.733C329.657 17.0701 330.002 16.535 330.457 16.1278C330.916 15.7159 331.444 15.4176 332.041 15.233C332.637 15.0436 333.265 14.9489 333.923 14.9489C334.358 14.9489 334.82 15.0009 335.308 15.1051C335.8 15.2045 336.259 15.3892 336.686 15.6591C337.116 15.929 337.469 16.3149 337.744 16.8168C338.018 17.3139 338.156 17.9602 338.156 18.7557V26H336.082V24.5085H335.997C335.859 24.7831 335.653 25.053 335.379 25.3182C335.104 25.5833 334.751 25.8035 334.32 25.9787C333.89 26.1539 333.374 26.2415 332.772 26.2415ZM333.234 24.5369C333.821 24.5369 334.323 24.4209 334.74 24.1889C335.161 23.9569 335.481 23.6539 335.698 23.2798C335.921 22.901 336.032 22.4962 336.032 22.0653V20.6591C335.956 20.7348 335.81 20.8059 335.592 20.8722C335.379 20.9337 335.135 20.9882 334.86 21.0355C334.586 21.0781 334.318 21.1184 334.058 21.1562C333.797 21.1894 333.579 21.2178 333.404 21.2415C332.992 21.2936 332.616 21.3812 332.275 21.5043C331.939 21.6274 331.669 21.8049 331.465 22.0369C331.267 22.2642 331.167 22.5672 331.167 22.946C331.167 23.4716 331.361 23.8693 331.749 24.1392C332.138 24.4044 332.633 24.5369 333.234 24.5369ZM343.108 19.5227V26H340.984V15.0909H343.023V16.8665H343.157C343.408 16.2888 343.801 15.8248 344.336 15.4744C344.876 15.1241 345.556 14.9489 346.375 14.9489C347.118 14.9489 347.769 15.1051 348.328 15.4176C348.887 15.7254 349.32 16.1847 349.628 16.7955C349.935 17.4062 350.089 18.1615 350.089 19.0611V26H347.966V19.3168C347.966 18.526 347.76 17.9081 347.348 17.4631C346.936 17.0133 346.37 16.7884 345.65 16.7884C345.158 16.7884 344.72 16.8949 344.336 17.108C343.958 17.321 343.657 17.6335 343.434 18.0455C343.217 18.4527 343.108 18.9451 343.108 19.5227ZM357.511 30.3182C356.645 30.3182 355.899 30.2045 355.274 29.9773C354.654 29.75 354.147 29.4493 353.754 29.0753C353.361 28.7012 353.068 28.2917 352.873 27.8466L354.699 27.0938C354.827 27.3021 354.997 27.5223 355.21 27.7543C355.428 27.991 355.721 28.1922 356.091 28.358C356.465 28.5237 356.945 28.6065 357.532 28.6065C358.337 28.6065 359.003 28.41 359.528 28.017C360.054 27.6288 360.317 27.0085 360.317 26.1562V24.0114H360.182C360.054 24.2434 359.869 24.5014 359.628 24.7855C359.391 25.0696 359.064 25.3158 358.648 25.5241C358.231 25.7325 357.689 25.8366 357.021 25.8366C356.159 25.8366 355.383 25.6354 354.692 25.233C354.005 24.8258 353.461 24.2268 353.058 23.4361C352.66 22.6406 352.461 21.6629 352.461 20.5028C352.461 19.3428 352.658 18.3485 353.051 17.5199C353.449 16.6913 353.993 16.0568 354.684 15.6165C355.376 15.1714 356.159 14.9489 357.035 14.9489C357.712 14.9489 358.259 15.0625 358.676 15.2898C359.093 15.5123 359.417 15.7727 359.649 16.071C359.886 16.3693 360.068 16.6321 360.196 16.8594H360.352V15.0909H362.433V26.2415C362.433 27.179 362.215 27.9484 361.78 28.5497C361.344 29.151 360.755 29.5961 360.011 29.8849C359.273 30.1738 358.439 30.3182 357.511 30.3182ZM357.49 24.0753C358.101 24.0753 358.617 23.9332 359.038 23.6491C359.464 23.3603 359.786 22.9484 360.004 22.4134C360.227 21.8736 360.338 21.2273 360.338 20.4744C360.338 19.7405 360.229 19.0942 360.011 18.5355C359.793 17.9768 359.474 17.5412 359.052 17.2287C358.631 16.9115 358.11 16.7528 357.49 16.7528C356.851 16.7528 356.318 16.9186 355.892 17.25C355.466 17.5767 355.144 18.0218 354.926 18.5852C354.713 19.1487 354.606 19.7784 354.606 20.4744C354.606 21.1894 354.715 21.8168 354.933 22.3565C355.151 22.8963 355.473 23.3177 355.899 23.6207C356.33 23.9238 356.86 24.0753 357.49 24.0753ZM370.744 26V11.4545H375.929C377.061 11.4545 377.998 11.6605 378.742 12.0724C379.485 12.4844 380.041 13.0478 380.411 13.7628C380.78 14.473 380.965 15.2732 380.965 16.1634C380.965 17.0582 380.778 17.8632 380.404 18.5781C380.034 19.2884 379.476 19.8518 378.727 20.2685C377.984 20.6804 377.049 20.8864 375.922 20.8864H372.357V19.0256H375.723C376.438 19.0256 377.018 18.9025 377.463 18.6562C377.908 18.4053 378.235 18.0644 378.443 17.6335C378.652 17.2027 378.756 16.7126 378.756 16.1634C378.756 15.6141 378.652 15.1264 378.443 14.7003C378.235 14.2741 377.906 13.9403 377.456 13.6989C377.011 13.4574 376.424 13.3366 375.695 13.3366H372.939V26H370.744ZM387.932 26.2202C386.857 26.2202 385.932 25.9905 385.155 25.5312C384.383 25.0672 383.787 24.4162 383.365 23.5781C382.949 22.7353 382.74 21.7481 382.74 20.6165C382.74 19.4991 382.949 18.5142 383.365 17.6619C383.787 16.8097 384.374 16.1444 385.127 15.6662C385.884 15.188 386.77 14.9489 387.783 14.9489C388.398 14.9489 388.995 15.0507 389.573 15.2543C390.15 15.4579 390.669 15.7775 391.128 16.2131C391.587 16.6487 391.95 17.2145 392.215 17.9105C392.48 18.6018 392.612 19.4422 392.612 20.4318V21.1847H383.941V19.5938H390.531C390.531 19.035 390.418 18.5402 390.191 18.1094C389.963 17.6738 389.644 17.3305 389.232 17.0795C388.825 16.8286 388.346 16.7031 387.797 16.7031C387.2 16.7031 386.68 16.8499 386.235 17.1435C385.794 17.4323 385.453 17.8111 385.212 18.2798C384.975 18.7438 384.857 19.2481 384.857 19.7926V21.0355C384.857 21.7647 384.985 22.3849 385.24 22.8963C385.501 23.4077 385.863 23.7983 386.327 24.0682C386.791 24.3333 387.333 24.4659 387.953 24.4659C388.356 24.4659 388.723 24.4091 389.054 24.2955C389.386 24.1771 389.672 24.0019 389.914 23.7699C390.155 23.5379 390.34 23.2514 390.468 22.9105L392.477 23.2727C392.316 23.8646 392.028 24.383 391.611 24.8281C391.199 25.2685 390.681 25.6117 390.056 25.858C389.435 26.0994 388.727 26.2202 387.932 26.2202ZM397.092 19.5227V26H394.969V15.0909H397.007V16.8665H397.142C397.393 16.2888 397.786 15.8248 398.321 15.4744C398.861 15.1241 399.54 14.9489 400.359 14.9489C401.103 14.9489 401.754 15.1051 402.312 15.4176C402.871 15.7254 403.304 16.1847 403.612 16.7955C403.92 17.4062 404.074 18.1615 404.074 19.0611V26H401.95V19.3168C401.95 18.526 401.744 17.9081 401.332 17.4631C400.92 17.0133 400.354 16.7884 399.635 16.7884C399.142 16.7884 398.704 16.8949 398.321 17.108C397.942 17.321 397.641 17.6335 397.419 18.0455C397.201 18.4527 397.092 18.9451 397.092 19.5227ZM411.496 30.3182C410.629 30.3182 409.883 30.2045 409.258 29.9773C408.638 29.75 408.131 29.4493 407.738 29.0753C407.345 28.7012 407.052 28.2917 406.858 27.8466L408.683 27.0938C408.811 27.3021 408.981 27.5223 409.194 27.7543C409.412 27.991 409.706 28.1922 410.075 28.358C410.449 28.5237 410.93 28.6065 411.517 28.6065C412.322 28.6065 412.987 28.41 413.513 28.017C414.038 27.6288 414.301 27.0085 414.301 26.1562V24.0114H414.166C414.038 24.2434 413.854 24.5014 413.612 24.7855C413.375 25.0696 413.049 25.3158 412.632 25.5241C412.215 25.7325 411.673 25.8366 411.006 25.8366C410.144 25.8366 409.367 25.6354 408.676 25.233C407.989 24.8258 407.445 24.2268 407.042 23.4361C406.645 22.6406 406.446 21.6629 406.446 20.5028C406.446 19.3428 406.642 18.3485 407.035 17.5199C407.433 16.6913 407.978 16.0568 408.669 15.6165C409.36 15.1714 410.144 14.9489 411.02 14.9489C411.697 14.9489 412.244 15.0625 412.66 15.2898C413.077 15.5123 413.401 15.7727 413.633 16.071C413.87 16.3693 414.052 16.6321 414.18 16.8594H414.336V15.0909H416.417V26.2415C416.417 27.179 416.2 27.9484 415.764 28.5497C415.328 29.151 414.739 29.5961 413.996 29.8849C413.257 30.1738 412.424 30.3182 411.496 30.3182ZM411.474 24.0753C412.085 24.0753 412.601 23.9332 413.023 23.6491C413.449 23.3603 413.771 22.9484 413.988 22.4134C414.211 21.8736 414.322 21.2273 414.322 20.4744C414.322 19.7405 414.213 19.0942 413.996 18.5355C413.778 17.9768 413.458 17.5412 413.037 17.2287C412.615 16.9115 412.095 16.7528 411.474 16.7528C410.835 16.7528 410.302 16.9186 409.876 17.25C409.45 17.5767 409.128 18.0218 408.91 18.5852C408.697 19.1487 408.591 19.7784 408.591 20.4744C408.591 21.1894 408.7 21.8168 408.917 22.3565C409.135 22.8963 409.457 23.3177 409.883 23.6207C410.314 23.9238 410.845 24.0753 411.474 24.0753ZM423.967 26.2202C422.892 26.2202 421.967 25.9905 421.19 25.5312C420.418 25.0672 419.822 24.4162 419.4 23.5781C418.984 22.7353 418.775 21.7481 418.775 20.6165C418.775 19.4991 418.984 18.5142 419.4 17.6619C419.822 16.8097 420.409 16.1444 421.162 15.6662C421.919 15.188 422.805 14.9489 423.818 14.9489C424.434 14.9489 425.03 15.0507 425.608 15.2543C426.185 15.4579 426.704 15.7775 427.163 16.2131C427.622 16.6487 427.985 17.2145 428.25 17.9105C428.515 18.6018 428.648 19.4422 428.648 20.4318V21.1847H419.976V19.5938H426.567C426.567 19.035 426.453 18.5402 426.226 18.1094C425.998 17.6738 425.679 17.3305 425.267 17.0795C424.86 16.8286 424.381 16.7031 423.832 16.7031C423.236 16.7031 422.715 16.8499 422.27 17.1435C421.829 17.4323 421.488 17.8111 421.247 18.2798C421.01 18.7438 420.892 19.2481 420.892 19.7926V21.0355C420.892 21.7647 421.02 22.3849 421.275 22.8963C421.536 23.4077 421.898 23.7983 422.362 24.0682C422.826 24.3333 423.368 24.4659 423.988 24.4659C424.391 24.4659 424.758 24.4091 425.089 24.2955C425.421 24.1771 425.707 24.0019 425.949 23.7699C426.19 23.5379 426.375 23.2514 426.503 22.9105L428.513 23.2727C428.352 23.8646 428.063 24.383 427.646 24.8281C427.234 25.2685 426.716 25.6117 426.091 25.858C425.47 26.0994 424.763 26.2202 423.967 26.2202ZM431.004 26V15.0909H433.056V16.8239H433.17C433.369 16.2367 433.719 15.7751 434.221 15.4389C434.728 15.098 435.301 14.9276 435.94 14.9276C436.072 14.9276 436.229 14.9323 436.409 14.9418C436.593 14.9512 436.738 14.9631 436.842 14.9773V17.0085C436.757 16.9848 436.605 16.9588 436.387 16.9304C436.169 16.8973 435.952 16.8807 435.734 16.8807C435.232 16.8807 434.785 16.9872 434.392 17.2003C434.003 17.4086 433.695 17.6998 433.468 18.0739C433.241 18.4432 433.127 18.8646 433.127 19.3381V26H431.004ZM438.68 15.0909H440.803V26.7102C440.803 27.4394 440.671 28.0549 440.405 28.5568C440.145 29.0587 439.757 29.4399 439.241 29.7003C438.729 29.9607 438.097 30.0909 437.344 30.0909C437.269 30.0909 437.198 30.0909 437.131 30.0909C437.06 30.0909 436.987 30.0885 436.911 30.0838V28.2585C436.977 28.2585 437.037 28.2585 437.089 28.2585C437.136 28.2585 437.19 28.2585 437.252 28.2585C437.754 28.2585 438.116 28.1236 438.339 27.8537C438.566 27.5885 438.68 27.2027 438.68 26.696V15.0909ZM439.731 13.4077C439.361 13.4077 439.044 13.2846 438.779 13.0384C438.519 12.7874 438.388 12.4891 438.388 12.1435C438.388 11.7931 438.519 11.4948 438.779 11.2486C439.044 10.9976 439.361 10.8722 439.731 10.8722C440.1 10.8722 440.415 10.9976 440.675 11.2486C440.94 11.4948 441.073 11.7931 441.073 12.1435C441.073 12.4891 440.94 12.7874 440.675 13.0384C440.415 13.2846 440.1 13.4077 439.731 13.4077ZM446.835 26.2415C446.143 26.2415 445.518 26.1136 444.96 25.858C444.401 25.5975 443.958 25.2211 443.632 24.7287C443.31 24.2363 443.149 23.6326 443.149 22.9176C443.149 22.3021 443.267 21.7955 443.504 21.3977C443.74 21 444.06 20.6851 444.463 20.4531C444.865 20.2211 445.315 20.0459 445.812 19.9276C446.309 19.8092 446.816 19.7192 447.332 19.6577C447.985 19.5819 448.516 19.5204 448.923 19.473C449.33 19.4209 449.626 19.3381 449.811 19.2244C449.995 19.1108 450.088 18.9261 450.088 18.6705V18.6207C450.088 18.0005 449.912 17.5199 449.562 17.179C449.216 16.8381 448.7 16.6676 448.014 16.6676C447.299 16.6676 446.735 16.8262 446.323 17.1435C445.916 17.456 445.634 17.804 445.478 18.1875L443.482 17.733C443.719 17.0701 444.065 16.535 444.519 16.1278C444.979 15.7159 445.507 15.4176 446.103 15.233C446.7 15.0436 447.327 14.9489 447.985 14.9489C448.421 14.9489 448.883 15.0009 449.37 15.1051C449.863 15.2045 450.322 15.3892 450.748 15.6591C451.179 15.929 451.532 16.3149 451.806 16.8168C452.081 17.3139 452.218 17.9602 452.218 18.7557V26H450.144V24.5085H450.059C449.922 24.7831 449.716 25.053 449.441 25.3182C449.167 25.5833 448.814 25.8035 448.383 25.9787C447.952 26.1539 447.436 26.2415 446.835 26.2415ZM447.296 24.5369C447.883 24.5369 448.385 24.4209 448.802 24.1889C449.223 23.9569 449.543 23.6539 449.761 23.2798C449.983 22.901 450.095 22.4962 450.095 22.0653V20.6591C450.019 20.7348 449.872 20.8059 449.654 20.8722C449.441 20.9337 449.197 20.9882 448.923 21.0355C448.648 21.0781 448.381 21.1184 448.12 21.1562C447.86 21.1894 447.642 21.2178 447.467 21.2415C447.055 21.2936 446.678 21.3812 446.338 21.5043C446.001 21.6274 445.731 21.8049 445.528 22.0369C445.329 22.2642 445.23 22.5672 445.23 22.946C445.23 23.4716 445.424 23.8693 445.812 24.1392C446.2 24.4044 446.695 24.5369 447.296 24.5369ZM458.221 26.2415C457.53 26.2415 456.905 26.1136 456.346 25.858C455.788 25.5975 455.345 25.2211 455.018 24.7287C454.696 24.2363 454.535 23.6326 454.535 22.9176C454.535 22.3021 454.654 21.7955 454.89 21.3977C455.127 21 455.447 20.6851 455.849 20.4531C456.252 20.2211 456.702 20.0459 457.199 19.9276C457.696 19.8092 458.202 19.7192 458.719 19.6577C459.372 19.5819 459.902 19.5204 460.309 19.473C460.717 19.4209 461.013 19.3381 461.197 19.2244C461.382 19.1108 461.474 18.9261 461.474 18.6705V18.6207C461.474 18.0005 461.299 17.5199 460.949 17.179C460.603 16.8381 460.087 16.6676 459.4 16.6676C458.685 16.6676 458.122 16.8262 457.71 17.1435C457.303 17.456 457.021 17.804 456.865 18.1875L454.869 17.733C455.106 17.0701 455.452 16.535 455.906 16.1278C456.365 15.7159 456.893 15.4176 457.49 15.233C458.086 15.0436 458.714 14.9489 459.372 14.9489C459.808 14.9489 460.269 15.0009 460.757 15.1051C461.249 15.2045 461.709 15.3892 462.135 15.6591C462.566 15.929 462.918 16.3149 463.193 16.8168C463.468 17.3139 463.605 17.9602 463.605 18.7557V26H461.531V24.5085H461.446C461.309 24.7831 461.103 25.053 460.828 25.3182C460.553 25.5833 460.201 25.8035 459.77 25.9787C459.339 26.1539 458.823 26.2415 458.221 26.2415ZM458.683 24.5369C459.27 24.5369 459.772 24.4209 460.189 24.1889C460.61 23.9569 460.93 23.6539 461.148 23.2798C461.37 22.901 461.481 22.4962 461.481 22.0653V20.6591C461.406 20.7348 461.259 20.8059 461.041 20.8722C460.828 20.9337 460.584 20.9882 460.309 21.0355C460.035 21.0781 459.767 21.1184 459.507 21.1562C459.247 21.1894 459.029 21.2178 458.854 21.2415C458.442 21.2936 458.065 21.3812 457.724 21.5043C457.388 21.6274 457.118 21.8049 456.915 22.0369C456.716 22.2642 456.616 22.5672 456.616 22.946C456.616 23.4716 456.81 23.8693 457.199 24.1392C457.587 24.4044 458.082 24.5369 458.683 24.5369ZM468.557 19.5227V26H466.433V15.0909H468.472V16.8665H468.607C468.858 16.2888 469.251 15.8248 469.786 15.4744C470.325 15.1241 471.005 14.9489 471.824 14.9489C472.567 14.9489 473.218 15.1051 473.777 15.4176C474.336 15.7254 474.769 16.1847 475.077 16.7955C475.385 17.4062 475.539 18.1615 475.539 19.0611V26H473.415V19.3168C473.415 18.526 473.209 17.9081 472.797 17.4631C472.385 17.0133 471.819 16.7884 471.1 16.7884C470.607 16.7884 470.169 16.8949 469.786 17.108C469.407 17.321 469.106 17.6335 468.884 18.0455C468.666 18.4527 468.557 18.9451 468.557 19.5227Z" fill="black"/>
<path d="M309.937 106.148V104.87L314.738 99.6143C315.302 98.9988 315.766 98.4638 316.131 98.0092C316.495 97.55 316.765 97.1191 316.94 96.7166C317.12 96.3094 317.21 95.8833 317.21 95.4382C317.21 94.9268 317.087 94.4841 316.841 94.1101C316.599 93.736 316.268 93.4472 315.846 93.2436C315.425 93.04 314.952 92.9382 314.426 92.9382C313.867 92.9382 313.38 93.0542 312.963 93.2862C312.551 93.5135 312.231 93.8331 312.004 94.245C311.782 94.657 311.67 95.1399 311.67 95.6939H309.994C309.994 94.8416 310.191 94.0935 310.584 93.4496C310.977 92.8056 311.512 92.3037 312.189 91.9439C312.871 91.584 313.635 91.4041 314.483 91.4041C315.335 91.4041 316.09 91.584 316.748 91.9439C317.407 92.3037 317.923 92.7891 318.297 93.3999C318.671 94.0107 318.858 94.6901 318.858 95.4382C318.858 95.9732 318.761 96.4964 318.567 97.0078C318.377 97.5144 318.046 98.0803 317.572 98.7053C317.104 99.3255 316.452 100.083 315.619 100.978L312.352 104.472V104.586H319.113V106.148H309.937ZM322.047 106.148V104.87L326.848 99.6143C327.411 98.9988 327.875 98.4638 328.24 98.0092C328.604 97.55 328.874 97.1191 329.05 96.7166C329.229 96.3094 329.319 95.8833 329.319 95.4382C329.319 94.9268 329.196 94.4841 328.95 94.1101C328.709 93.736 328.377 93.4472 327.956 93.2436C327.534 93.04 327.061 92.9382 326.535 92.9382C325.977 92.9382 325.489 93.0542 325.072 93.2862C324.66 93.5135 324.341 93.8331 324.113 94.245C323.891 94.657 323.78 95.1399 323.78 95.6939H322.104C322.104 94.8416 322.3 94.0935 322.693 93.4496C323.086 92.8056 323.621 92.3037 324.298 91.9439C324.98 91.584 325.745 91.4041 326.592 91.4041C327.444 91.4041 328.2 91.584 328.858 91.9439C329.516 92.3037 330.032 92.7891 330.406 93.3999C330.78 94.0107 330.967 94.6901 330.967 95.4382C330.967 95.9732 330.87 96.4964 330.676 97.0078C330.487 97.5144 330.155 98.0803 329.682 98.7053C329.213 99.3255 328.562 100.083 327.729 100.978L324.461 104.472V104.586H331.223V106.148H322.047ZM340.633 106.148H338.787L344.128 91.603H345.946L351.287 106.148H349.44L345.094 93.9041H344.98L340.633 106.148ZM341.315 100.467H348.758V102.029H341.315V100.467ZM357.729 110.467C356.919 110.467 356.223 110.362 355.64 110.154C355.058 109.951 354.573 109.681 354.184 109.344C353.801 109.013 353.496 108.658 353.268 108.279L354.604 107.342C354.755 107.54 354.947 107.768 355.179 108.023C355.411 108.284 355.728 108.509 356.131 108.698C356.538 108.892 357.07 108.989 357.729 108.989C358.609 108.989 359.336 108.776 359.909 108.35C360.482 107.924 360.768 107.256 360.768 106.347V104.131H360.626C360.503 104.33 360.328 104.576 360.101 104.87C359.878 105.159 359.556 105.417 359.135 105.644C358.718 105.867 358.155 105.978 357.444 105.978C356.564 105.978 355.773 105.77 355.072 105.353C354.376 104.936 353.825 104.33 353.417 103.535C353.015 102.739 352.814 101.773 352.814 100.637C352.814 99.5196 353.01 98.5466 353.403 97.718C353.796 96.8847 354.343 96.2408 355.044 95.7862C355.745 95.3269 356.554 95.0973 357.473 95.0973C358.183 95.0973 358.747 95.2157 359.163 95.4524C359.585 95.6844 359.907 95.9496 360.129 96.2479C360.356 96.5414 360.532 96.7829 360.655 96.9723H360.825V95.2393H362.444V106.461C362.444 107.398 362.231 108.161 361.805 108.748C361.384 109.34 360.816 109.773 360.101 110.048C359.39 110.327 358.6 110.467 357.729 110.467ZM357.672 104.472C358.344 104.472 358.912 104.318 359.376 104.011C359.84 103.703 360.193 103.26 360.434 102.683C360.676 102.105 360.797 101.414 360.797 100.609C360.797 99.8227 360.678 99.129 360.442 98.5277C360.205 97.9264 359.854 97.4553 359.39 97.1143C358.926 96.7734 358.354 96.603 357.672 96.603C356.961 96.603 356.37 96.7829 355.896 97.1428C355.427 97.5026 355.075 97.9856 354.838 98.5916C354.606 99.1977 354.49 99.87 354.49 100.609C354.49 101.366 354.608 102.036 354.845 102.619C355.086 103.196 355.442 103.651 355.91 103.982C356.384 104.309 356.971 104.472 357.672 104.472ZM372.388 101.688V95.2393H374.064V106.148H372.388V104.302H372.274C372.018 104.856 371.621 105.327 371.081 105.715C370.541 106.099 369.859 106.29 369.035 106.29C368.354 106.29 367.747 106.141 367.217 105.843C366.687 105.54 366.27 105.085 365.967 104.479C365.664 103.869 365.513 103.099 365.513 102.171V95.2393H367.189V102.058C367.189 102.853 367.411 103.487 367.856 103.961C368.306 104.434 368.879 104.671 369.575 104.671C369.992 104.671 370.416 104.565 370.846 104.352C371.282 104.138 371.647 103.812 371.94 103.371C372.238 102.931 372.388 102.37 372.388 101.688ZM384.861 97.6825L383.355 98.1087C383.261 97.8577 383.121 97.6139 382.936 97.3771C382.756 97.1357 382.51 96.9368 382.198 96.7805C381.885 96.6243 381.485 96.5462 380.997 96.5462C380.33 96.5462 379.773 96.7 379.328 97.0078C378.888 97.3108 378.668 97.6967 378.668 98.1655C378.668 98.5821 378.819 98.9112 379.122 99.1527C379.425 99.3942 379.899 99.5954 380.543 99.7564L382.162 100.154C383.137 100.391 383.864 100.753 384.343 101.241C384.821 101.724 385.06 102.346 385.06 103.109C385.06 103.734 384.88 104.292 384.52 104.785C384.165 105.277 383.668 105.665 383.029 105.95C382.389 106.234 381.646 106.376 380.798 106.376C379.686 106.376 378.765 106.134 378.036 105.651C377.307 105.168 376.845 104.463 376.651 103.535L378.242 103.137C378.393 103.724 378.68 104.165 379.101 104.458C379.527 104.752 380.084 104.898 380.77 104.898C381.551 104.898 382.172 104.733 382.631 104.401C383.095 104.065 383.327 103.663 383.327 103.194C383.327 102.815 383.194 102.498 382.929 102.242C382.664 101.982 382.257 101.788 381.708 101.66L379.889 101.234C378.89 100.997 378.156 100.63 377.688 100.133C377.224 99.6309 376.992 99.0036 376.992 98.2507C376.992 97.6352 377.164 97.0907 377.51 96.6172C377.86 96.1437 378.336 95.772 378.938 95.5021C379.544 95.2322 380.23 95.0973 380.997 95.0973C382.077 95.0973 382.924 95.334 383.54 95.8075C384.16 96.281 384.601 96.906 384.861 97.6825ZM392.327 95.2393V96.6598H386.674V95.2393H392.327ZM388.322 92.6257H389.998V103.023C389.998 103.497 390.066 103.852 390.204 104.089C390.346 104.321 390.526 104.477 390.743 104.558C390.966 104.633 391.2 104.671 391.447 104.671C391.631 104.671 391.783 104.662 391.901 104.643C392.019 104.619 392.114 104.6 392.185 104.586L392.526 106.092C392.412 106.134 392.254 106.177 392.05 106.219C391.847 106.267 391.589 106.29 391.276 106.29C390.803 106.29 390.339 106.189 389.884 105.985C389.434 105.781 389.06 105.471 388.762 105.055C388.468 104.638 388.322 104.112 388.322 103.478V92.6257ZM401.724 101.688V95.2393H403.4V106.148H401.724V104.302H401.61C401.354 104.856 400.956 105.327 400.417 105.715C399.877 106.099 399.195 106.29 398.371 106.29C397.689 106.29 397.083 106.141 396.553 105.843C396.023 105.54 395.606 105.085 395.303 104.479C395 103.869 394.849 103.099 394.849 102.171V95.2393H396.525V102.058C396.525 102.853 396.747 103.487 397.192 103.961C397.642 104.434 398.215 104.671 398.911 104.671C399.328 104.671 399.751 104.565 400.182 104.352C400.618 104.138 400.983 103.812 401.276 103.371C401.574 102.931 401.724 102.37 401.724 101.688ZM414.197 97.6825L412.691 98.1087C412.597 97.8577 412.457 97.6139 412.272 97.3771C412.092 97.1357 411.846 96.9368 411.534 96.7805C411.221 96.6243 410.821 96.5462 410.333 96.5462C409.666 96.5462 409.109 96.7 408.664 97.0078C408.224 97.3108 408.004 97.6967 408.004 98.1655C408.004 98.5821 408.155 98.9112 408.458 99.1527C408.761 99.3942 409.235 99.5954 409.879 99.7564L411.498 100.154C412.473 100.391 413.2 100.753 413.678 101.241C414.157 101.724 414.396 102.346 414.396 103.109C414.396 103.734 414.216 104.292 413.856 104.785C413.501 105.277 413.004 105.665 412.365 105.95C411.725 106.234 410.982 106.376 410.134 106.376C409.022 106.376 408.101 106.134 407.372 105.651C406.642 105.168 406.181 104.463 405.987 103.535L407.578 103.137C407.729 103.724 408.016 104.165 408.437 104.458C408.863 104.752 409.419 104.898 410.106 104.898C410.887 104.898 411.508 104.733 411.967 104.401C412.431 104.065 412.663 103.663 412.663 103.194C412.663 102.815 412.53 102.498 412.265 102.242C412 101.982 411.593 101.788 411.044 101.66L409.225 101.234C408.226 100.997 407.492 100.63 407.024 100.133C406.56 99.6309 406.328 99.0036 406.328 98.2507C406.328 97.6352 406.5 97.0907 406.846 96.6172C407.196 96.1437 407.672 95.772 408.274 95.5021C408.88 95.2322 409.566 95.0973 410.333 95.0973C411.413 95.0973 412.26 95.334 412.876 95.8075C413.496 96.281 413.936 96.906 414.197 97.6825ZM422.515 106.148V104.87L427.317 99.6143C427.88 98.9988 428.344 98.4638 428.709 98.0092C429.073 97.55 429.343 97.1191 429.518 96.7166C429.698 96.3094 429.788 95.8833 429.788 95.4382C429.788 94.9268 429.665 94.4841 429.419 94.1101C429.177 93.736 428.846 93.4472 428.425 93.2436C428.003 93.04 427.53 92.9382 427.004 92.9382C426.445 92.9382 425.958 93.0542 425.541 93.2862C425.129 93.5135 424.809 93.8331 424.582 94.245C424.36 94.657 424.248 95.1399 424.248 95.6939H422.572C422.572 94.8416 422.769 94.0935 423.162 93.4496C423.555 92.8056 424.09 92.3037 424.767 91.9439C425.449 91.584 426.213 91.4041 427.061 91.4041C427.913 91.4041 428.668 91.584 429.327 91.9439C429.985 92.3037 430.501 92.7891 430.875 93.3999C431.249 94.0107 431.436 94.6901 431.436 95.4382C431.436 95.9732 431.339 96.4964 431.145 97.0078C430.955 97.5144 430.624 98.0803 430.15 98.7053C429.682 99.3255 429.031 100.083 428.197 100.978L424.93 104.472V104.586H431.692V106.148H422.515ZM439.369 106.347C438.299 106.347 437.388 106.056 436.635 105.474C435.882 104.887 435.307 104.037 434.909 102.924C434.511 101.807 434.312 100.457 434.312 98.8757C434.312 97.3037 434.511 95.9614 434.909 94.8487C435.311 93.7313 435.889 92.879 436.642 92.2919C437.399 91.7 438.309 91.4041 439.369 91.4041C440.43 91.4041 441.336 91.7 442.089 92.2919C442.847 92.879 443.425 93.7313 443.822 94.8487C444.225 95.9614 444.426 97.3037 444.426 98.8757C444.426 100.457 444.227 101.807 443.829 102.924C443.432 104.037 442.856 104.887 442.104 105.474C441.351 106.056 440.439 106.347 439.369 106.347ZM439.369 104.785C440.43 104.785 441.254 104.273 441.841 103.251C442.428 102.228 442.721 100.77 442.721 98.8757C442.721 97.6162 442.586 96.5438 442.317 95.6584C442.051 94.773 441.668 94.0982 441.166 93.6342C440.669 93.1702 440.07 92.9382 439.369 92.9382C438.318 92.9382 437.497 93.4567 436.905 94.4936C436.313 95.5258 436.017 96.9865 436.017 98.8757C436.017 100.135 436.149 101.205 436.415 102.086C436.68 102.967 437.061 103.637 437.558 104.096C438.06 104.555 438.664 104.785 439.369 104.785ZM447.125 106.148V104.87L451.926 99.6143C452.489 98.9988 452.953 98.4638 453.318 98.0092C453.683 97.55 453.952 97.1191 454.128 96.7166C454.308 96.3094 454.398 95.8833 454.398 95.4382C454.398 94.9268 454.274 94.4841 454.028 94.1101C453.787 93.736 453.455 93.4472 453.034 93.2436C452.613 93.04 452.139 92.9382 451.613 92.9382C451.055 92.9382 450.567 93.0542 450.15 93.2862C449.738 93.5135 449.419 93.8331 449.192 94.245C448.969 94.657 448.858 95.1399 448.858 95.6939H447.182C447.182 94.8416 447.378 94.0935 447.771 93.4496C448.164 92.8056 448.699 92.3037 449.376 91.9439C450.058 91.584 450.823 91.4041 451.67 91.4041C452.523 91.4041 453.278 91.584 453.936 91.9439C454.594 92.3037 455.11 92.7891 455.484 93.3999C455.858 94.0107 456.045 94.6901 456.045 95.4382C456.045 95.9732 455.948 96.4964 455.754 97.0078C455.565 97.5144 455.233 98.0803 454.76 98.7053C454.291 99.3255 453.64 100.083 452.807 100.978L449.54 104.472V104.586H456.301V106.148H447.125ZM458.581 103.165V101.717L464.973 91.603H466.024V93.8473H465.314L460.484 101.489V101.603H469.092V103.165H458.581ZM465.427 106.148V102.725V102.05V91.603H467.104V106.148H465.427Z" fill="black"/>
<rect x="668.681" y="45.1816" width="30.1213" height="30.1213" rx="15.0606" fill="#FF7A00"/>
<path d="M631.871 28V10.0766H642.985V12.4045H634.575V17.8656H642.189V20.1848H634.575V28H631.871ZM646.101 28V14.5575H648.718V28H646.101ZM647.422 12.4833C646.967 12.4833 646.576 12.3316 646.25 12.0282C645.929 11.719 645.768 11.3514 645.768 10.9255C645.768 10.4938 645.929 10.1262 646.25 9.82281C646.576 9.51358 646.967 9.35897 647.422 9.35897C647.878 9.35897 648.266 9.51358 648.586 9.82281C648.913 10.1262 649.076 10.4938 649.076 10.9255C649.076 11.3514 648.913 11.719 648.586 12.0282C648.266 12.3316 647.878 12.4833 647.422 12.4833ZM654.855 20.0185V28H652.238V14.5575H654.75V16.7454H654.916C655.225 16.0336 655.71 15.4618 656.369 15.03C657.034 14.5983 657.871 14.3824 658.881 14.3824C659.797 14.3824 660.599 14.575 661.287 14.96C661.976 15.3393 662.51 15.9052 662.889 16.6579C663.268 17.4105 663.458 18.3411 663.458 19.4496V28H660.841V19.7647C660.841 18.7903 660.587 18.0289 660.08 17.4805C659.572 16.9262 658.875 16.6491 657.988 16.6491C657.381 16.6491 656.841 16.7804 656.369 17.0429C655.902 17.3055 655.532 17.6905 655.257 18.1981C654.989 18.6999 654.855 19.3067 654.855 20.0185ZM666.967 28V14.5575H669.584V28H666.967ZM668.289 12.4833C667.833 12.4833 667.443 12.3316 667.116 12.0282C666.795 11.719 666.635 11.3514 666.635 10.9255C666.635 10.4938 666.795 10.1262 667.116 9.82281C667.443 9.51358 667.833 9.35897 668.289 9.35897C668.744 9.35897 669.132 9.51358 669.453 9.82281C669.779 10.1262 669.943 10.4938 669.943 10.9255C669.943 11.3514 669.779 11.719 669.453 12.0282C669.132 12.3316 668.744 12.4833 668.289 12.4833ZM683.177 17.8393L680.806 18.2594C680.706 17.956 680.549 17.6672 680.333 17.393C680.123 17.1188 679.837 16.8941 679.475 16.7191C679.114 16.5441 678.661 16.4566 678.119 16.4566C677.378 16.4566 676.759 16.6228 676.264 16.9554C675.768 17.2821 675.52 17.7051 675.52 18.2244C675.52 18.6737 675.686 19.0354 676.018 19.3096C676.351 19.5838 676.888 19.8084 677.629 19.9835L679.764 20.4736C681.001 20.7595 681.923 21.2 682.53 21.7951C683.136 22.3902 683.44 23.1633 683.44 24.1143C683.44 24.9194 683.206 25.6371 682.74 26.2672C682.279 26.8915 681.634 27.3815 680.806 27.7375C679.983 28.0934 679.029 28.2713 677.944 28.2713C676.439 28.2713 675.21 27.9504 674.259 27.3086C673.308 26.661 672.725 25.7421 672.509 24.5518L675.038 24.1668C675.196 24.8261 675.52 25.3249 676.01 25.6633C676.5 25.9959 677.139 26.1622 677.926 26.1622C678.784 26.1622 679.47 25.9842 679.983 25.6283C680.496 25.2666 680.753 24.8261 680.753 24.3068C680.753 23.8867 680.596 23.5337 680.281 23.2479C679.971 22.962 679.496 22.7461 678.854 22.6002L676.579 22.1014C675.324 21.8155 674.396 21.3604 673.796 20.7361C673.2 20.1118 672.903 19.3213 672.903 18.3644C672.903 17.5709 673.125 16.8766 673.568 16.2815C674.011 15.6864 674.624 15.2226 675.406 14.89C676.188 14.5516 677.083 14.3824 678.093 14.3824C679.545 14.3824 680.689 14.6975 681.523 15.3276C682.358 15.9519 682.909 16.7891 683.177 17.8393ZM688.934 20.0185V28H686.317V10.0766H688.899V16.7454H689.065C689.38 16.0219 689.861 15.4472 690.509 15.0213C691.157 14.5954 692.003 14.3824 693.047 14.3824C693.969 14.3824 694.774 14.572 695.462 14.9513C696.157 15.3305 696.694 15.8965 697.073 16.6491C697.458 17.3959 697.65 18.3294 697.65 19.4496V28H695.034V19.7647C695.034 18.7787 694.78 18.0144 694.272 17.4718C693.765 16.9233 693.059 16.6491 692.154 16.6491C691.536 16.6491 690.982 16.7804 690.492 17.0429C690.007 17.3055 689.625 17.6905 689.345 18.1981C689.071 18.6999 688.934 19.3067 688.934 20.0185ZM701.142 28V14.5575H703.759V28H701.142ZM702.464 12.4833C702.009 12.4833 701.618 12.3316 701.291 12.0282C700.97 11.719 700.81 11.3514 700.81 10.9255C700.81 10.4938 700.97 10.1262 701.291 9.82281C701.618 9.51358 702.009 9.35897 702.464 9.35897C702.919 9.35897 703.307 9.51358 703.628 9.82281C703.954 10.1262 704.118 10.4938 704.118 10.9255C704.118 11.3514 703.954 11.719 703.628 12.0282C703.307 12.3316 702.919 12.4833 702.464 12.4833ZM709.896 20.0185V28H707.279V14.5575H709.791V16.7454H709.957C710.267 16.0336 710.751 15.4618 711.41 15.03C712.075 14.5983 712.913 14.3824 713.922 14.3824C714.838 14.3824 715.64 14.575 716.329 14.96C717.017 15.3393 717.551 15.9052 717.93 16.6579C718.309 17.4105 718.499 18.3411 718.499 19.4496V28H715.882V19.7647C715.882 18.7903 715.628 18.0289 715.121 17.4805C714.613 16.9262 713.916 16.6491 713.029 16.6491C712.422 16.6491 711.883 16.7804 711.41 17.0429C710.943 17.3055 710.573 17.6905 710.299 18.1981C710.03 18.6999 709.896 19.3067 709.896 20.0185ZM727.644 33.321C726.577 33.321 725.658 33.181 724.888 32.9009C724.123 32.6209 723.499 32.2504 723.015 31.7895C722.531 31.3285 722.169 30.8239 721.93 30.2754L724.179 29.3478C724.336 29.6045 724.546 29.8758 724.809 30.1617C725.077 30.4534 725.439 30.7013 725.894 30.9056C726.355 31.1098 726.947 31.2119 727.671 31.2119C728.663 31.2119 729.482 30.9697 730.13 30.4855C730.778 30.007 731.101 29.2427 731.101 28.1925V25.5495H730.935C730.778 25.8354 730.55 26.1534 730.252 26.5035C729.961 26.8535 729.558 27.1569 729.045 27.4136C728.531 27.6704 727.863 27.7987 727.041 27.7987C725.979 27.7987 725.022 27.5507 724.17 27.0548C723.324 26.5531 722.653 25.815 722.157 24.8407C721.667 23.8605 721.422 22.6557 721.422 21.2262C721.422 19.7968 721.664 18.5715 722.148 17.5505C722.639 16.5295 723.309 15.7477 724.161 15.2051C725.013 14.6566 725.979 14.3824 727.058 14.3824C727.892 14.3824 728.566 14.5224 729.08 14.8025C729.593 15.0767 729.993 15.3976 730.279 15.7652C730.57 16.1328 730.795 16.4566 730.953 16.7366H731.145V14.5575H733.709V28.2976C733.709 29.4528 733.441 30.4009 732.904 31.1418C732.367 31.8828 731.641 32.4313 730.725 32.7872C729.815 33.1431 728.788 33.321 727.644 33.321ZM727.618 25.6283C728.371 25.6283 729.007 25.4533 729.526 25.1032C730.051 24.7473 730.448 24.2397 730.716 23.5804C730.991 22.9153 731.128 22.1189 731.128 21.1912C731.128 20.2869 730.993 19.4905 730.725 18.802C730.457 18.1135 730.063 17.5768 729.544 17.1917C729.024 16.8008 728.383 16.6053 727.618 16.6053C726.831 16.6053 726.174 16.8095 725.649 17.218C725.124 17.6205 724.727 18.169 724.459 18.8633C724.196 19.5576 724.065 20.3335 724.065 21.1912C724.065 22.0722 724.199 22.8453 724.468 23.5104C724.736 24.1755 725.133 24.6948 725.658 25.0682C726.189 25.4416 726.842 25.6283 727.618 25.6283Z" fill="black"/>
<path d="M604.359 106.148V104.87L609.16 99.6143C609.724 98.9988 610.188 98.4638 610.552 98.0092C610.917 97.55 611.187 97.1191 611.362 96.7166C611.542 96.3094 611.632 95.8833 611.632 95.4382C611.632 94.9268 611.509 94.4841 611.263 94.1101C611.021 93.736 610.69 93.4472 610.268 93.2436C609.847 93.04 609.373 92.9382 608.848 92.9382C608.289 92.9382 607.801 93.0542 607.385 93.2862C606.973 93.5135 606.653 93.8331 606.426 94.245C606.203 94.657 606.092 95.1399 606.092 95.6939H604.416C604.416 94.8416 604.613 94.0935 605.006 93.4496C605.398 92.8056 605.934 92.3037 606.611 91.9439C607.292 91.584 608.057 91.4041 608.905 91.4041C609.757 91.4041 610.512 91.584 611.17 91.9439C611.828 92.3037 612.345 92.7891 612.719 93.3999C613.093 94.0107 613.28 94.6901 613.28 95.4382C613.28 95.9732 613.183 96.4964 612.988 97.0078C612.799 97.5144 612.468 98.0803 611.994 98.7053C611.525 99.3255 610.874 100.083 610.041 100.978L606.774 104.472V104.586H613.535V106.148H604.359ZM615.815 103.165V101.717L622.207 91.603H623.258V93.8473H622.548L617.719 101.489V101.603H626.327V103.165H615.815ZM622.662 106.148V102.725V102.05V91.603H624.338V106.148H622.662ZM635.465 106.148H633.619L638.96 91.603H640.778L646.119 106.148H644.272L639.926 93.9041H639.812L635.465 106.148ZM636.147 100.467H643.59V102.029H636.147V100.467ZM652.561 110.467C651.751 110.467 651.055 110.362 650.472 110.154C649.89 109.951 649.405 109.681 649.017 109.344C648.633 109.013 648.328 108.658 648.1 108.279L649.436 107.342C649.587 107.54 649.779 107.768 650.011 108.023C650.243 108.284 650.56 108.509 650.963 108.698C651.37 108.892 651.902 108.989 652.561 108.989C653.441 108.989 654.168 108.776 654.741 108.35C655.314 107.924 655.6 107.256 655.6 106.347V104.131H655.458C655.335 104.33 655.16 104.576 654.933 104.87C654.71 105.159 654.388 105.417 653.967 105.644C653.55 105.867 652.987 105.978 652.276 105.978C651.396 105.978 650.605 105.77 649.904 105.353C649.208 104.936 648.657 104.33 648.249 103.535C647.847 102.739 647.646 101.773 647.646 100.637C647.646 99.5196 647.842 98.5466 648.235 97.718C648.628 96.8847 649.175 96.2408 649.876 95.7862C650.577 95.3269 651.386 95.0973 652.305 95.0973C653.015 95.0973 653.579 95.2157 653.995 95.4524C654.417 95.6844 654.739 95.9496 654.961 96.2479C655.188 96.5414 655.364 96.7829 655.487 96.9723H655.657V95.2393H657.276V106.461C657.276 107.398 657.063 108.161 656.637 108.748C656.216 109.34 655.648 109.773 654.933 110.048C654.222 110.327 653.432 110.467 652.561 110.467ZM652.504 104.472C653.176 104.472 653.744 104.318 654.208 104.011C654.672 103.703 655.025 103.26 655.267 102.683C655.508 102.105 655.629 101.414 655.629 100.609C655.629 99.8227 655.51 99.129 655.274 98.5277C655.037 97.9264 654.686 97.4553 654.222 97.1143C653.758 96.7734 653.186 96.603 652.504 96.603C651.794 96.603 651.202 96.7829 650.728 97.1428C650.259 97.5026 649.907 97.9856 649.67 98.5916C649.438 99.1977 649.322 99.87 649.322 100.609C649.322 101.366 649.44 102.036 649.677 102.619C649.919 103.196 650.274 103.651 650.742 103.982C651.216 104.309 651.803 104.472 652.504 104.472ZM667.22 101.688V95.2393H668.896V106.148H667.22V104.302H667.106C666.85 104.856 666.453 105.327 665.913 105.715C665.373 106.099 664.691 106.29 663.867 106.29C663.186 106.29 662.579 106.141 662.049 105.843C661.519 105.54 661.102 105.085 660.799 104.479C660.496 103.869 660.345 103.099 660.345 102.171V95.2393H662.021V102.058C662.021 102.853 662.243 103.487 662.688 103.961C663.138 104.434 663.711 104.671 664.407 104.671C664.824 104.671 665.248 104.565 665.678 104.352C666.114 104.138 666.479 103.812 666.772 103.371C667.07 102.931 667.22 102.37 667.22 101.688ZM679.693 97.6825L678.187 98.1087C678.093 97.8577 677.953 97.6139 677.768 97.3771C677.588 97.1357 677.342 96.9368 677.03 96.7805C676.717 96.6243 676.317 96.5462 675.829 96.5462C675.162 96.5462 674.605 96.7 674.16 97.0078C673.72 97.3108 673.5 97.6967 673.5 98.1655C673.5 98.5821 673.651 98.9112 673.954 99.1527C674.257 99.3942 674.731 99.5954 675.375 99.7564L676.994 100.154C677.97 100.391 678.696 100.753 679.175 101.241C679.653 101.724 679.892 102.346 679.892 103.109C679.892 103.734 679.712 104.292 679.352 104.785C678.997 105.277 678.5 105.665 677.861 105.95C677.221 106.234 676.478 106.376 675.631 106.376C674.518 106.376 673.597 106.134 672.868 105.651C672.139 105.168 671.677 104.463 671.483 103.535L673.074 103.137C673.225 103.724 673.512 104.165 673.933 104.458C674.359 104.752 674.916 104.898 675.602 104.898C676.383 104.898 677.004 104.733 677.463 104.401C677.927 104.065 678.159 103.663 678.159 103.194C678.159 102.815 678.026 102.498 677.761 102.242C677.496 101.982 677.089 101.788 676.54 101.66L674.721 101.234C673.722 100.997 672.988 100.63 672.52 100.133C672.056 99.6309 671.824 99.0036 671.824 98.2507C671.824 97.6352 671.997 97.0907 672.342 96.6172C672.693 96.1437 673.168 95.772 673.77 95.5021C674.376 95.2322 675.062 95.0973 675.829 95.0973C676.909 95.0973 677.756 95.334 678.372 95.8075C678.992 96.281 679.433 96.906 679.693 97.6825ZM687.159 95.2393V96.6598H681.506V95.2393H687.159ZM683.154 92.6257H684.83V103.023C684.83 103.497 684.898 103.852 685.036 104.089C685.178 104.321 685.358 104.477 685.575 104.558C685.798 104.633 686.032 104.671 686.279 104.671C686.463 104.671 686.615 104.662 686.733 104.643C686.852 104.619 686.946 104.6 687.017 104.586L687.358 106.092C687.244 106.134 687.086 106.177 686.882 106.219C686.679 106.267 686.421 106.29 686.108 106.29C685.635 106.29 685.171 106.189 684.716 105.985C684.266 105.781 683.892 105.471 683.594 105.055C683.3 104.638 683.154 104.112 683.154 103.478V92.6257ZM696.556 101.688V95.2393H698.232V106.148H696.556V104.302H696.442C696.186 104.856 695.789 105.327 695.249 105.715C694.709 106.099 694.027 106.29 693.203 106.29C692.521 106.29 691.915 106.141 691.385 105.843C690.855 105.54 690.438 105.085 690.135 104.479C689.832 103.869 689.681 103.099 689.681 102.171V95.2393H691.357V102.058C691.357 102.853 691.579 103.487 692.024 103.961C692.474 104.434 693.047 104.671 693.743 104.671C694.16 104.671 694.584 104.565 695.014 104.352C695.45 104.138 695.815 103.812 696.108 103.371C696.406 102.931 696.556 102.37 696.556 101.688ZM709.029 97.6825L707.523 98.1087C707.429 97.8577 707.289 97.6139 707.104 97.3771C706.924 97.1357 706.678 96.9368 706.366 96.7805C706.053 96.6243 705.653 96.5462 705.165 96.5462C704.498 96.5462 703.941 96.7 703.496 97.0078C703.056 97.3108 702.836 97.6967 702.836 98.1655C702.836 98.5821 702.987 98.9112 703.29 99.1527C703.593 99.3942 704.067 99.5954 704.711 99.7564L706.33 100.154C707.305 100.391 708.032 100.753 708.51 101.241C708.989 101.724 709.228 102.346 709.228 103.109C709.228 103.734 709.048 104.292 708.688 104.785C708.333 105.277 707.836 105.665 707.197 105.95C706.557 106.234 705.814 106.376 704.966 106.376C703.854 106.376 702.933 106.134 702.204 105.651C701.474 105.168 701.013 104.463 700.819 103.535L702.41 103.137C702.561 103.724 702.848 104.165 703.269 104.458C703.695 104.752 704.251 104.898 704.938 104.898C705.719 104.898 706.34 104.733 706.799 104.401C707.263 104.065 707.495 103.663 707.495 103.194C707.495 102.815 707.362 102.498 707.097 102.242C706.832 101.982 706.425 101.788 705.876 101.66L704.057 101.234C703.058 100.997 702.324 100.63 701.856 100.133C701.392 99.6309 701.16 99.0036 701.16 98.2507C701.16 97.6352 701.332 97.0907 701.678 96.6172C702.028 96.1437 702.504 95.772 703.106 95.5021C703.712 95.2322 704.398 95.0973 705.165 95.0973C706.245 95.0973 707.092 95.334 707.708 95.8075C708.328 96.281 708.769 96.906 709.029 97.6825ZM717.347 106.148V104.87L722.149 99.6143C722.712 98.9988 723.176 98.4638 723.541 98.0092C723.905 97.55 724.175 97.1191 724.35 96.7166C724.53 96.3094 724.62 95.8833 724.62 95.4382C724.62 94.9268 724.497 94.4841 724.251 94.1101C724.009 93.736 723.678 93.4472 723.257 93.2436C722.835 93.04 722.362 92.9382 721.836 92.9382C721.277 92.9382 720.79 93.0542 720.373 93.2862C719.961 93.5135 719.642 93.8331 719.414 94.245C719.192 94.657 719.08 95.1399 719.08 95.6939H717.404C717.404 94.8416 717.601 94.0935 717.994 93.4496C718.387 92.8056 718.922 92.3037 719.599 91.9439C720.281 91.584 721.045 91.4041 721.893 91.4041C722.745 91.4041 723.5 91.584 724.159 91.9439C724.817 92.3037 725.333 92.7891 725.707 93.3999C726.081 94.0107 726.268 94.6901 726.268 95.4382C726.268 95.9732 726.171 96.4964 725.977 97.0078C725.787 97.5144 725.456 98.0803 724.982 98.7053C724.514 99.3255 723.863 100.083 723.029 100.978L719.762 104.472V104.586H726.524V106.148H717.347ZM734.201 106.347C733.131 106.347 732.22 106.056 731.467 105.474C730.714 104.887 730.139 104.037 729.741 102.924C729.343 101.807 729.144 100.457 729.144 98.8757C729.144 97.3037 729.343 95.9614 729.741 94.8487C730.143 93.7313 730.721 92.879 731.474 92.2919C732.231 91.7 733.141 91.4041 734.201 91.4041C735.262 91.4041 736.169 91.7 736.921 92.2919C737.679 92.879 738.257 93.7313 738.654 94.8487C739.057 95.9614 739.258 97.3037 739.258 98.8757C739.258 100.457 739.059 101.807 738.661 102.924C738.264 104.037 737.688 104.887 736.936 105.474C736.183 106.056 735.271 106.347 734.201 106.347ZM734.201 104.785C735.262 104.785 736.086 104.273 736.673 103.251C737.26 102.228 737.553 100.77 737.553 98.8757C737.553 97.6162 737.419 96.5438 737.149 95.6584C736.883 94.773 736.5 94.0982 735.998 93.6342C735.501 93.1702 734.902 92.9382 734.201 92.9382C733.15 92.9382 732.329 93.4567 731.737 94.4936C731.145 95.5258 730.849 96.9865 730.849 98.8757C730.849 100.135 730.981 101.205 731.247 102.086C731.512 102.967 731.893 103.637 732.39 104.096C732.892 104.555 733.496 104.785 734.201 104.785ZM741.957 106.148V104.87L746.758 99.6143C747.321 98.9988 747.785 98.4638 748.15 98.0092C748.515 97.55 748.785 97.1191 748.96 96.7166C749.14 96.3094 749.23 95.8833 749.23 95.4382C749.23 94.9268 749.106 94.4841 748.86 94.1101C748.619 93.736 748.287 93.4472 747.866 93.2436C747.445 93.04 746.971 92.9382 746.445 92.9382C745.887 92.9382 745.399 93.0542 744.982 93.2862C744.57 93.5135 744.251 93.8331 744.024 94.245C743.801 94.657 743.69 95.1399 743.69 95.6939H742.014C742.014 94.8416 742.21 94.0935 742.603 93.4496C742.996 92.8056 743.531 92.3037 744.208 91.9439C744.89 91.584 745.655 91.4041 746.502 91.4041C747.355 91.4041 748.11 91.584 748.768 91.9439C749.426 92.3037 749.942 92.7891 750.316 93.3999C750.69 94.0107 750.877 94.6901 750.877 95.4382C750.877 95.9732 750.78 96.4964 750.586 97.0078C750.397 97.5144 750.065 98.0803 749.592 98.7053C749.123 99.3255 748.472 100.083 747.639 100.978L744.372 104.472V104.586H751.133V106.148H741.957ZM753.413 103.165V101.717L759.805 91.603H760.856V93.8473H760.146L755.316 101.489V101.603H763.924V103.165H753.413ZM760.259 106.148V102.725V102.05V91.603H761.936V106.148H760.259Z" fill="black"/>
<rect x="961.248" y="45.1816" width="30.1213" height="30.1213" rx="15.0606" fill="#FF7A00"/>
<path d="M952.991 15.2756C952.915 14.6032 952.603 14.0824 952.054 13.7131C951.504 13.339 950.813 13.152 949.98 13.152C949.383 13.152 948.867 13.2467 948.432 13.4361C947.996 13.6207 947.657 13.8764 947.416 14.2031C947.179 14.5251 947.061 14.892 947.061 15.304C947.061 15.6496 947.141 15.9479 947.302 16.1989C947.468 16.4498 947.683 16.6605 947.949 16.831C948.218 16.9967 948.507 17.1364 948.815 17.25C949.123 17.3589 949.419 17.4489 949.703 17.5199L951.123 17.8892C951.587 18.0028 952.063 18.1567 952.551 18.3509C953.039 18.545 953.491 18.8007 953.907 19.1179C954.324 19.4351 954.66 19.8281 954.916 20.2969C955.176 20.7656 955.307 21.3267 955.307 21.9801C955.307 22.804 955.093 23.5355 954.667 24.1747C954.246 24.8139 953.633 25.3182 952.828 25.6875C952.028 26.0568 951.059 26.2415 949.923 26.2415C948.834 26.2415 947.892 26.0687 947.096 25.723C946.301 25.3774 945.678 24.8873 945.228 24.2528C944.779 23.6136 944.53 22.8561 944.483 21.9801H946.684C946.727 22.5057 946.897 22.9437 947.196 23.294C947.499 23.6397 947.885 23.8977 948.353 24.0682C948.827 24.2339 949.345 24.3168 949.909 24.3168C950.529 24.3168 951.081 24.2197 951.564 24.0256C952.051 23.8267 952.435 23.5521 952.714 23.2017C952.994 22.8466 953.133 22.4323 953.133 21.9588C953.133 21.5279 953.01 21.1752 952.764 20.9006C952.522 20.6259 952.193 20.3987 951.777 20.2188C951.365 20.0388 950.898 19.8802 950.378 19.7429L948.659 19.2741C947.494 18.9569 946.571 18.4905 945.889 17.875C945.212 17.2595 944.873 16.4451 944.873 15.4318C944.873 14.5937 945.101 13.8622 945.555 13.2372C946.01 12.6122 946.625 12.1269 947.402 11.7812C948.178 11.4309 949.054 11.2557 950.03 11.2557C951.014 11.2557 951.883 11.4285 952.636 11.7741C953.394 12.1198 953.99 12.5956 954.426 13.2017C954.861 13.803 955.089 14.4943 955.108 15.2756H952.991ZM962.46 26.2202C961.386 26.2202 960.46 25.9905 959.683 25.5312C958.912 25.0672 958.315 24.4162 957.894 23.5781C957.477 22.7353 957.269 21.7481 957.269 20.6165C957.269 19.4991 957.477 18.5142 957.894 17.6619C958.315 16.8097 958.902 16.1444 959.655 15.6662C960.412 15.188 961.298 14.9489 962.311 14.9489C962.927 14.9489 963.523 15.0507 964.101 15.2543C964.679 15.4579 965.197 15.7775 965.656 16.2131C966.116 16.6487 966.478 17.2145 966.743 17.9105C967.008 18.6018 967.141 19.4422 967.141 20.4318V21.1847H958.469V19.5938H965.06C965.06 19.035 964.946 18.5402 964.719 18.1094C964.492 17.6738 964.172 17.3305 963.76 17.0795C963.353 16.8286 962.875 16.7031 962.325 16.7031C961.729 16.7031 961.208 16.8499 960.763 17.1435C960.323 17.4323 959.982 17.8111 959.74 18.2798C959.503 18.7438 959.385 19.2481 959.385 19.7926V21.0355C959.385 21.7647 959.513 22.3849 959.769 22.8963C960.029 23.4077 960.391 23.7983 960.855 24.0682C961.319 24.3333 961.861 24.4659 962.482 24.4659C962.884 24.4659 963.251 24.4091 963.582 24.2955C963.914 24.1771 964.2 24.0019 964.442 23.7699C964.683 23.5379 964.868 23.2514 964.996 22.9105L967.006 23.2727C966.845 23.8646 966.556 24.383 966.139 24.8281C965.727 25.2685 965.209 25.6117 964.584 25.858C963.964 26.0994 963.256 26.2202 962.46 26.2202ZM971.62 11.4545V26H969.497V11.4545H971.62ZM979.179 26.2202C978.104 26.2202 977.179 25.9905 976.402 25.5312C975.63 25.0672 975.034 24.4162 974.612 23.5781C974.196 22.7353 973.987 21.7481 973.987 20.6165C973.987 19.4991 974.196 18.5142 974.612 17.6619C975.034 16.8097 975.621 16.1444 976.374 15.6662C977.131 15.188 978.017 14.9489 979.03 14.9489C979.645 14.9489 980.242 15.0507 980.82 15.2543C981.397 15.4579 981.916 15.7775 982.375 16.2131C982.834 16.6487 983.197 17.2145 983.462 17.9105C983.727 18.6018 983.859 19.4422 983.859 20.4318V21.1847H975.188V19.5938H981.778C981.778 19.035 981.665 18.5402 981.438 18.1094C981.21 17.6738 980.891 17.3305 980.479 17.0795C980.072 16.8286 979.593 16.7031 979.044 16.7031C978.448 16.7031 977.927 16.8499 977.482 17.1435C977.041 17.4323 976.7 17.8111 976.459 18.2798C976.222 18.7438 976.104 19.2481 976.104 19.7926V21.0355C976.104 21.7647 976.232 22.3849 976.487 22.8963C976.748 23.4077 977.11 23.7983 977.574 24.0682C978.038 24.3333 978.58 24.4659 979.2 24.4659C979.603 24.4659 979.97 24.4091 980.301 24.2955C980.633 24.1771 980.919 24.0019 981.161 23.7699C981.402 23.5379 981.587 23.2514 981.715 22.9105L983.725 23.2727C983.564 23.8646 983.275 24.383 982.858 24.8281C982.446 25.2685 981.928 25.6117 981.303 25.858C980.682 26.0994 979.975 26.2202 979.179 26.2202ZM994.39 17.7543L992.466 18.0952C992.385 17.849 992.257 17.6146 992.082 17.392C991.912 17.1695 991.68 16.9872 991.386 16.8452C991.093 16.7031 990.726 16.6321 990.285 16.6321C989.684 16.6321 989.182 16.767 988.78 17.0369C988.377 17.3021 988.176 17.6454 988.176 18.0668C988.176 18.4313 988.311 18.7249 988.581 18.9474C988.851 19.17 989.286 19.3523 989.888 19.4943L991.62 19.892C992.624 20.1241 993.372 20.4815 993.865 20.9645C994.357 21.4474 994.603 22.0748 994.603 22.8466C994.603 23.5 994.414 24.0824 994.035 24.5938C993.661 25.1004 993.138 25.4981 992.466 25.7869C991.798 26.0758 991.024 26.2202 990.143 26.2202C988.922 26.2202 987.925 25.9598 987.153 25.4389C986.381 24.9134 985.908 24.1676 985.733 23.2017L987.785 22.8892C987.913 23.4242 988.176 23.8291 988.574 24.1037C988.971 24.3736 989.49 24.5085 990.129 24.5085C990.825 24.5085 991.381 24.3641 991.798 24.0753C992.215 23.7817 992.423 23.4242 992.423 23.0028C992.423 22.6619 992.295 22.3755 992.04 22.1435C991.789 21.9115 991.403 21.7363 990.882 21.6179L989.035 21.2131C988.017 20.9811 987.264 20.6117 986.777 20.1051C986.294 19.5985 986.052 18.9569 986.052 18.1804C986.052 17.5365 986.232 16.973 986.592 16.4901C986.952 16.0071 987.449 15.6307 988.084 15.3608C988.718 15.0862 989.445 14.9489 990.264 14.9489C991.443 14.9489 992.371 15.2045 993.048 15.7159C993.725 16.2225 994.173 16.902 994.39 17.7543ZM1000.11 26.2415C999.422 26.2415 998.797 26.1136 998.238 25.858C997.679 25.5975 997.237 25.2211 996.91 24.7287C996.588 24.2363 996.427 23.6326 996.427 22.9176C996.427 22.3021 996.545 21.7955 996.782 21.3977C997.019 21 997.338 20.6851 997.741 20.4531C998.143 20.2211 998.593 20.0459 999.09 19.9276C999.587 19.8092 1000.09 19.7192 1000.61 19.6577C1001.26 19.5819 1001.79 19.5204 1002.2 19.473C1002.61 19.4209 1002.9 19.3381 1003.09 19.2244C1003.27 19.1108 1003.37 18.9261 1003.37 18.6705V18.6207C1003.37 18.0005 1003.19 17.5199 1002.84 17.179C1002.49 16.8381 1001.98 16.6676 1001.29 16.6676C1000.58 16.6676 1000.01 16.8262 999.602 17.1435C999.194 17.456 998.913 17.804 998.756 18.1875L996.761 17.733C996.997 17.0701 997.343 16.535 997.798 16.1278C998.257 15.7159 998.785 15.4176 999.381 15.233C999.978 15.0436 1000.61 14.9489 1001.26 14.9489C1001.7 14.9489 1002.16 15.0009 1002.65 15.1051C1003.14 15.2045 1003.6 15.3892 1004.03 15.6591C1004.46 15.929 1004.81 16.3149 1005.08 16.8168C1005.36 17.3139 1005.5 17.9602 1005.5 18.7557V26H1003.42V24.5085H1003.34C1003.2 24.7831 1002.99 25.053 1002.72 25.3182C1002.44 25.5833 1002.09 25.8035 1001.66 25.9787C1001.23 26.1539 1000.71 26.2415 1000.11 26.2415ZM1000.57 24.5369C1001.16 24.5369 1001.66 24.4209 1002.08 24.1889C1002.5 23.9569 1002.82 23.6539 1003.04 23.2798C1003.26 22.901 1003.37 22.4962 1003.37 22.0653V20.6591C1003.3 20.7348 1003.15 20.8059 1002.93 20.8722C1002.72 20.9337 1002.48 20.9882 1002.2 21.0355C1001.93 21.0781 1001.66 21.1184 1001.4 21.1562C1001.14 21.1894 1000.92 21.2178 1000.75 21.2415C1000.33 21.2936 999.957 21.3812 999.616 21.5043C999.28 21.6274 999.01 21.8049 998.806 22.0369C998.607 22.2642 998.508 22.5672 998.508 22.946C998.508 23.4716 998.702 23.8693 999.09 24.1392C999.479 24.4044 999.973 24.5369 1000.57 24.5369ZM1008.33 26V15.0909H1010.45V26H1008.33ZM1009.4 13.4077C1009.03 13.4077 1008.71 13.2846 1008.45 13.0384C1008.19 12.7874 1008.06 12.4891 1008.06 12.1435C1008.06 11.7931 1008.19 11.4948 1008.45 11.2486C1008.71 10.9976 1009.03 10.8722 1009.4 10.8722C1009.77 10.8722 1010.08 10.9976 1010.34 11.2486C1010.61 11.4948 1010.74 11.7931 1010.74 12.1435C1010.74 12.4891 1010.61 12.7874 1010.34 13.0384C1010.08 13.2846 1009.77 13.4077 1009.4 13.4077Z" fill="black"/>
<path d="M897.391 106.148V104.87L902.192 99.6143C902.756 98.9988 903.22 98.4638 903.584 98.0092C903.949 97.55 904.219 97.1191 904.394 96.7166C904.574 96.3094 904.664 95.8833 904.664 95.4382C904.664 94.9268 904.541 94.4841 904.295 94.1101C904.053 93.736 903.722 93.4472 903.3 93.2436C902.879 93.04 902.405 92.9382 901.88 92.9382C901.321 92.9382 900.833 93.0542 900.417 93.2862C900.005 93.5135 899.685 93.8331 899.458 94.245C899.235 94.657 899.124 95.1399 899.124 95.6939H897.448C897.448 94.8416 897.645 94.0935 898.038 93.4496C898.431 92.8056 898.966 92.3037 899.643 91.9439C900.324 91.584 901.089 91.4041 901.937 91.4041C902.789 91.4041 903.544 91.584 904.202 91.9439C904.86 92.3037 905.377 92.7891 905.751 93.3999C906.125 94.0107 906.312 94.6901 906.312 95.4382C906.312 95.9732 906.215 96.4964 906.021 97.0078C905.831 97.5144 905.5 98.0803 905.026 98.7053C904.557 99.3255 903.906 100.083 903.073 100.978L899.806 104.472V104.586H906.567V106.148H897.391ZM914.046 106.347C913.213 106.347 912.462 106.182 911.795 105.85C911.127 105.519 910.592 105.064 910.19 104.487C909.787 103.909 909.567 103.251 909.529 102.512H911.234C911.3 103.17 911.598 103.715 912.128 104.146C912.663 104.572 913.303 104.785 914.046 104.785C914.643 104.785 915.173 104.645 915.637 104.366C916.106 104.086 916.473 103.703 916.738 103.215C917.008 102.723 917.143 102.166 917.143 101.546C917.143 100.912 917.003 100.346 916.724 99.8487C916.449 99.3468 916.07 98.9515 915.587 98.6626C915.104 98.3738 914.553 98.227 913.932 98.2223C913.487 98.2176 913.03 98.2862 912.562 98.4283C912.093 98.5656 911.707 98.7431 911.404 98.9609L909.756 98.7621L910.637 91.603H918.194V93.1655H912.114L911.603 97.4553H911.688C911.986 97.2185 912.36 97.022 912.81 96.8658C913.26 96.7095 913.729 96.6314 914.217 96.6314C915.107 96.6314 915.9 96.8445 916.596 97.2706C917.297 97.692 917.846 98.2696 918.244 99.0036C918.646 99.7375 918.847 100.576 918.847 101.518C918.847 102.446 918.639 103.274 918.222 104.004C917.81 104.728 917.242 105.301 916.518 105.722C915.793 106.139 914.969 106.347 914.046 106.347ZM928.146 106.148H926.299L931.64 91.603H933.458L938.799 106.148H936.953L932.606 93.9041H932.492L928.146 106.148ZM928.828 100.467H936.271V102.029H928.828V100.467ZM945.241 110.467C944.431 110.467 943.735 110.362 943.153 110.154C942.571 109.951 942.085 109.681 941.697 109.344C941.313 109.013 941.008 108.658 940.781 108.279L942.116 107.342C942.268 107.54 942.459 107.768 942.691 108.023C942.923 108.284 943.241 108.509 943.643 108.698C944.05 108.892 944.583 108.989 945.241 108.989C946.122 108.989 946.849 108.776 947.421 108.35C947.994 107.924 948.281 107.256 948.281 106.347V104.131H948.139C948.016 104.33 947.84 104.576 947.613 104.87C947.391 105.159 947.069 105.417 946.647 105.644C946.231 105.867 945.667 105.978 944.957 105.978C944.076 105.978 943.286 105.77 942.585 105.353C941.889 104.936 941.337 104.33 940.93 103.535C940.527 102.739 940.326 101.773 940.326 100.637C940.326 99.5196 940.523 98.5466 940.916 97.718C941.309 96.8847 941.856 96.2408 942.556 95.7862C943.257 95.3269 944.067 95.0973 944.985 95.0973C945.696 95.0973 946.259 95.2157 946.676 95.4524C947.097 95.6844 947.419 95.9496 947.642 96.2479C947.869 96.5414 948.044 96.7829 948.167 96.9723H948.338V95.2393H949.957V106.461C949.957 107.398 949.744 108.161 949.318 108.748C948.896 109.34 948.328 109.773 947.613 110.048C946.903 110.327 946.112 110.467 945.241 110.467ZM945.184 104.472C945.857 104.472 946.425 104.318 946.889 104.011C947.353 103.703 947.706 103.26 947.947 102.683C948.188 102.105 948.309 101.414 948.309 100.609C948.309 99.8227 948.191 99.129 947.954 98.5277C947.717 97.9264 947.367 97.4553 946.903 97.1143C946.439 96.7734 945.866 96.603 945.184 96.603C944.474 96.603 943.882 96.7829 943.409 97.1428C942.94 97.5026 942.587 97.9856 942.35 98.5916C942.118 99.1977 942.002 99.87 942.002 100.609C942.002 101.366 942.121 102.036 942.358 102.619C942.599 103.196 942.954 103.651 943.423 103.982C943.896 104.309 944.483 104.472 945.184 104.472ZM959.9 101.688V95.2393H961.576V106.148H959.9V104.302H959.786C959.531 104.856 959.133 105.327 958.593 105.715C958.054 106.099 957.372 106.29 956.548 106.29C955.866 106.29 955.26 106.141 954.73 105.843C954.199 105.54 953.783 105.085 953.48 104.479C953.177 103.869 953.025 103.099 953.025 102.171V95.2393H954.701V102.058C954.701 102.853 954.924 103.487 955.369 103.961C955.819 104.434 956.392 104.671 957.088 104.671C957.504 104.671 957.928 104.565 958.359 104.352C958.795 104.138 959.159 103.812 959.453 103.371C959.751 102.931 959.9 102.37 959.9 101.688ZM972.373 97.6825L970.868 98.1087C970.773 97.8577 970.633 97.6139 970.449 97.3771C970.269 97.1357 970.023 96.9368 969.71 96.7805C969.398 96.6243 968.998 96.5462 968.51 96.5462C967.842 96.5462 967.286 96.7 966.841 97.0078C966.4 97.3108 966.18 97.6967 966.18 98.1655C966.18 98.5821 966.332 98.9112 966.635 99.1527C966.938 99.3942 967.411 99.5954 968.055 99.7564L969.675 100.154C970.65 100.391 971.377 100.753 971.855 101.241C972.333 101.724 972.572 102.346 972.572 103.109C972.572 103.734 972.392 104.292 972.033 104.785C971.677 105.277 971.18 105.665 970.541 105.95C969.902 106.234 969.159 106.376 968.311 106.376C967.198 106.376 966.277 106.134 965.548 105.651C964.819 105.168 964.357 104.463 964.163 103.535L965.754 103.137C965.906 103.724 966.192 104.165 966.614 104.458C967.04 104.752 967.596 104.898 968.283 104.898C969.064 104.898 969.684 104.733 970.143 104.401C970.607 104.065 970.839 103.663 970.839 103.194C970.839 102.815 970.707 102.498 970.442 102.242C970.177 101.982 969.769 101.788 969.22 101.66L967.402 101.234C966.403 100.997 965.669 100.63 965.2 100.133C964.736 99.6309 964.504 99.0036 964.504 98.2507C964.504 97.6352 964.677 97.0907 965.023 96.6172C965.373 96.1437 965.849 95.772 966.45 95.5021C967.056 95.2322 967.743 95.0973 968.51 95.0973C969.589 95.0973 970.437 95.334 971.052 95.8075C971.673 96.281 972.113 96.906 972.373 97.6825ZM979.84 95.2393V96.6598H974.186V95.2393H979.84ZM975.834 92.6257H977.51V103.023C977.51 103.497 977.579 103.852 977.716 104.089C977.858 104.321 978.038 104.477 978.256 104.558C978.478 104.633 978.713 104.671 978.959 104.671C979.144 104.671 979.295 104.662 979.414 104.643C979.532 104.619 979.627 104.6 979.698 104.586L980.039 106.092C979.925 106.134 979.766 106.177 979.563 106.219C979.359 106.267 979.101 106.29 978.789 106.29C978.315 106.29 977.851 106.189 977.397 105.985C976.947 105.781 976.573 105.471 976.274 105.055C975.981 104.638 975.834 104.112 975.834 103.478V92.6257ZM989.236 101.688V95.2393H990.912V106.148H989.236V104.302H989.122C988.867 104.856 988.469 105.327 987.929 105.715C987.389 106.099 986.708 106.29 985.884 106.29C985.202 106.29 984.596 106.141 984.066 105.843C983.535 105.54 983.119 105.085 982.816 104.479C982.513 103.869 982.361 103.099 982.361 102.171V95.2393H984.037V102.058C984.037 102.853 984.26 103.487 984.705 103.961C985.155 104.434 985.728 104.671 986.424 104.671C986.84 104.671 987.264 104.565 987.695 104.352C988.13 104.138 988.495 103.812 988.789 103.371C989.087 102.931 989.236 102.37 989.236 101.688ZM1001.71 97.6825L1000.2 98.1087C1000.11 97.8577 999.969 97.6139 999.785 97.3771C999.605 97.1357 999.359 96.9368 999.046 96.7805C998.734 96.6243 998.333 96.5462 997.846 96.5462C997.178 96.5462 996.622 96.7 996.177 97.0078C995.736 97.3108 995.516 97.6967 995.516 98.1655C995.516 98.5821 995.668 98.9112 995.971 99.1527C996.274 99.3942 996.747 99.5954 997.391 99.7564L999.011 100.154C999.986 100.391 1000.71 100.753 1001.19 101.241C1001.67 101.724 1001.91 102.346 1001.91 103.109C1001.91 103.734 1001.73 104.292 1001.37 104.785C1001.01 105.277 1000.52 105.665 999.877 105.95C999.238 106.234 998.494 106.376 997.647 106.376C996.534 106.376 995.613 106.134 994.884 105.651C994.155 105.168 993.693 104.463 993.499 103.535L995.09 103.137C995.242 103.724 995.528 104.165 995.949 104.458C996.376 104.752 996.932 104.898 997.619 104.898C998.4 104.898 999.02 104.733 999.479 104.401C999.943 104.065 1000.18 103.663 1000.18 103.194C1000.18 102.815 1000.04 102.498 999.778 102.242C999.512 101.982 999.105 101.788 998.556 101.66L996.738 101.234C995.739 100.997 995.005 100.63 994.536 100.133C994.072 99.6309 993.84 99.0036 993.84 98.2507C993.84 97.6352 994.013 97.0907 994.359 96.6172C994.709 96.1437 995.185 95.772 995.786 95.5021C996.392 95.2322 997.079 95.0973 997.846 95.0973C998.925 95.0973 999.773 95.334 1000.39 95.8075C1001.01 96.281 1001.45 96.906 1001.71 97.6825ZM1010.03 106.148V104.87L1014.83 99.6143C1015.39 98.9988 1015.86 98.4638 1016.22 98.0092C1016.59 97.55 1016.86 97.1191 1017.03 96.7166C1017.21 96.3094 1017.3 95.8833 1017.3 95.4382C1017.3 94.9268 1017.18 94.4841 1016.93 94.1101C1016.69 93.736 1016.36 93.4472 1015.94 93.2436C1015.52 93.04 1015.04 92.9382 1014.52 92.9382C1013.96 92.9382 1013.47 93.0542 1013.05 93.2862C1012.64 93.5135 1012.32 93.8331 1012.09 94.245C1011.87 94.657 1011.76 95.1399 1011.76 95.6939H1010.08C1010.08 94.8416 1010.28 94.0935 1010.67 93.4496C1011.07 92.8056 1011.6 92.3037 1012.28 91.9439C1012.96 91.584 1013.73 91.4041 1014.57 91.4041C1015.43 91.4041 1016.18 91.584 1016.84 91.9439C1017.5 92.3037 1018.01 92.7891 1018.39 93.3999C1018.76 94.0107 1018.95 94.6901 1018.95 95.4382C1018.95 95.9732 1018.85 96.4964 1018.66 97.0078C1018.47 97.5144 1018.14 98.0803 1017.66 98.7053C1017.19 99.3255 1016.54 100.083 1015.71 100.978L1012.44 104.472V104.586H1019.2V106.148H1010.03ZM1026.88 106.347C1025.81 106.347 1024.9 106.056 1024.15 105.474C1023.39 104.887 1022.82 104.037 1022.42 102.924C1022.02 101.807 1021.82 100.457 1021.82 98.8757C1021.82 97.3037 1022.02 95.9614 1022.42 94.8487C1022.82 93.7313 1023.4 92.879 1024.15 92.2919C1024.91 91.7 1025.82 91.4041 1026.88 91.4041C1027.94 91.4041 1028.85 91.7 1029.6 92.2919C1030.36 92.879 1030.94 93.7313 1031.33 94.8487C1031.74 95.9614 1031.94 97.3037 1031.94 98.8757C1031.94 100.457 1031.74 101.807 1031.34 102.924C1030.94 104.037 1030.37 104.887 1029.62 105.474C1028.86 106.056 1027.95 106.347 1026.88 106.347ZM1026.88 104.785C1027.94 104.785 1028.77 104.273 1029.35 103.251C1029.94 102.228 1030.23 100.77 1030.23 98.8757C1030.23 97.6162 1030.1 96.5438 1029.83 95.6584C1029.56 94.773 1029.18 94.0982 1028.68 93.6342C1028.18 93.1702 1027.58 92.9382 1026.88 92.9382C1025.83 92.9382 1025.01 93.4567 1024.42 94.4936C1023.83 95.5258 1023.53 96.9865 1023.53 98.8757C1023.53 100.135 1023.66 101.205 1023.93 102.086C1024.19 102.967 1024.57 103.637 1025.07 104.096C1025.57 104.555 1026.18 104.785 1026.88 104.785ZM1034.64 106.148V104.87L1039.44 99.6143C1040 98.9988 1040.47 98.4638 1040.83 98.0092C1041.2 97.55 1041.46 97.1191 1041.64 96.7166C1041.82 96.3094 1041.91 95.8833 1041.91 95.4382C1041.91 94.9268 1041.79 94.4841 1041.54 94.1101C1041.3 93.736 1040.97 93.4472 1040.55 93.2436C1040.13 93.04 1039.65 92.9382 1039.13 92.9382C1038.57 92.9382 1038.08 93.0542 1037.66 93.2862C1037.25 93.5135 1036.93 93.8331 1036.7 94.245C1036.48 94.657 1036.37 95.1399 1036.37 95.6939H1034.69C1034.69 94.8416 1034.89 94.0935 1035.28 93.4496C1035.68 92.8056 1036.21 92.3037 1036.89 91.9439C1037.57 91.584 1038.34 91.4041 1039.18 91.4041C1040.04 91.4041 1040.79 91.584 1041.45 91.9439C1042.11 92.3037 1042.62 92.7891 1043 93.3999C1043.37 94.0107 1043.56 94.6901 1043.56 95.4382C1043.56 95.9732 1043.46 96.4964 1043.27 97.0078C1043.08 97.5144 1042.75 98.0803 1042.27 98.7053C1041.8 99.3255 1041.15 100.083 1040.32 100.978L1037.05 104.472V104.586H1043.81V106.148H1034.64ZM1046.09 103.165V101.717L1052.49 91.603H1053.54V93.8473H1052.83L1048 101.489V101.603H1056.6V103.165H1046.09ZM1052.94 106.148V102.725V102.05V91.603H1054.62V106.148H1052.94Z" fill="black"/>
</svg>
