<svg width="365" height="396" viewBox="0 0 365 396" fill="none" xmlns="http://www.w3.org/2000/svg">
<path d="M414.765 266.259C414.765 336.195 146.588 390 64.6669 390C-17.2541 390 -49.9421 243.63 142.622 188.259C301.239 133.37 259.219 0 341.14 0C423.061 0 414.765 196.324 414.765 266.259Z" fill="url(#paint0_linear_78_203)" fill-opacity="0.5"/>
<path d="M424.787 325.585C424.787 387.989 182.459 436 108.434 436C34.409 436 4.87161 305.393 178.875 255.985C322.204 207.007 284.234 88 358.259 88C432.284 88 424.787 263.181 424.787 325.585Z" fill="url(#paint1_linear_78_203)"/>
<defs>
<linearGradient id="paint0_linear_78_203" x1="266.435" y1="139.63" x2="266.435" y2="392.889" gradientUnits="userSpaceOnUse">
<stop stop-color="#FF7A00"/>
<stop offset="1" stop-color="#8D8D8D"/>
</linearGradient>
<linearGradient id="paint1_linear_78_203" x1="290.754" y1="212.593" x2="290.754" y2="438.578" gradientUnits="userSpaceOnUse">
<stop stop-color="#FF7A00"/>
<stop offset="1" stop-color="#8D8D8D"/>
</linearGradient>
</defs>
</svg>
